<svg width="130" height="169" viewBox="0 0 130 169" fill="none" xmlns="http://www.w3.org/2000/svg">
<path d="M87.3921 141.87L88.4907 140.53H81.6133V138.552H92.812L86.4033 146.602L85.2607 148.022H92.4531V150H81.0493L87.3921 141.87Z" fill="#D9D9D9"/>
<path d="M58.8873 42.1942L46.8737 49.5963L38.0346 82.7266C39.8621 89.3792 43.7083 103.135 44.473 104.936C45.2378 106.738 50.6194 108.11 53.2146 108.571L63.8158 95.5597L65.6195 78.0888L67.4233 60.6179L58.8873 42.1942Z" stroke="#C995DD" stroke-width="2"/>
<path d="M47.6353 49.8701L51.6278 62.0739L67.7084 60.752" stroke="#C995DD" stroke-width="2"/>
<path d="M59.5 42.8868L51.2438 60.9593" stroke="#C995DD" stroke-width="2"/>
<path d="M51.6771 62.0855L48.5699 85.9969L38.9604 83.1632" stroke="#C995DD" stroke-width="2"/>
<path d="M63.8245 95.5206L48.5698 85.9961L45.1426 105.074" stroke="#C995DD" stroke-width="2"/>
<path d="M45.5952 138.552H48.166L51.7622 147.283L55.3584 138.552H57.9292L52.9121 150H50.6123L45.5952 138.552Z" fill="#D9D9D9"/>
<path d="M68.833 138.552H71.1694V150H68.833V138.552Z" fill="#D9D9D9"/>
<path d="M77 135L119.5 135.5L127.5 143.5V148L117 155.5" stroke="#D9D9D9" stroke-width="2"/>
<path d="M77.5 1C60.6667 10.5 25.4 48.7 19 125.5" stroke="#D9D9D9" stroke-width="2"/>
<path d="M19 125.5H77V1" stroke="#D9D9D9" stroke-width="2"/>
<path d="M77 125.5H113.5L77 20" stroke="#D9D9D9" stroke-width="2"/>
<path d="M77 125.5V135L2 135.5C4 139.5 10.9 148.7 22.5 153.5" stroke="#D9D9D9" stroke-width="2"/>
<path d="M22.5 153.5L26 154.5" stroke="#D9D9D9" stroke-width="2"/>
<path d="M12 160.5C18.5 156.666 34 150 44 154C56.5 159 68.5 161.5 71.5 160.5C74.5 159.5 82.5 153.5 88 155.5C93.5 157.5 98 161.5 101.5 161C105 160.5 115 154 118.5 156C122 158 124.5 161.5 128.5 161" stroke="#D9D9D9" stroke-width="3"/>
<path d="M12.5 166.735C19 162.902 34.5 156.235 44.5 160.235C57 165.235 69 167.735 72 166.735C75 165.735 83 159.735 88.5 161.735C94 163.735 98.5 167.735 102 167.235C105.5 166.735 115.5 160.235 119 162.235C122.5 164.235 125 167.735 129 167.235" stroke="#D9D9D9" stroke-width="3"/>
<path d="M19 126L18.5 126.001L18 126.001" stroke="#D9D9D9"/>
<path d="M18.9985 125.539L18.5 125.5L18.0015 125.461" stroke="#D9D9D9"/>
</svg>
