<svg width="641" height="196" viewBox="0 0 641 196" fill="none" xmlns="http://www.w3.org/2000/svg">
<path d="M69.6998 114.449H45.5586L38.5047 96.5737L38.3798 96.2572H38.0396H1.5V77.2006H30.1239H30.8588L30.589 76.517L1.59008 3.03613H25.7316L69.6998 114.449Z" fill="black" stroke="black"/>
<path d="M143.795 72.2638V3.03613L168.011 3.0362V114.449H143.554L114.521 73.093V32.1484L142.885 72.5511L143.795 73.8462V72.2638Z" fill="black" stroke="black"/>
<path d="M256.389 72.2638V3.03613L280.607 3.0362V114.449H256.149L227.548 73.7084V32.7637L255.48 72.5511L256.389 73.8462V72.2638Z" fill="black" stroke="black"/>
<path d="M340.729 3.03613H391.384V23.189H340.729V3.03613Z" fill="black" stroke="black"/>
<path d="M478.293 92.7885C487.754 92.7885 496.329 89.0042 502.591 82.8728L518.836 99.0983C508.418 109.383 494.099 115.733 478.293 115.733C468.988 115.733 460.202 113.524 452.421 109.615V81.2178C458.775 88.3158 468.009 92.7885 478.293 92.7885Z" fill="black" stroke="black"/>
<path d="M639.737 2.57038L597.86 62.2204L597.77 62.3497V62.5077V114.449H573.551V62.1117V61.9537L573.461 61.8244L564.068 48.4444V7.49997L585.39 37.8714L585.799 38.4543L586.209 37.8714L610.992 2.57031L639.737 2.57038Z" fill="black" stroke="black"/>
<path d="M452.446 35.0154V6.61788C460.228 2.70883 469.014 0.5 478.318 0.5C493.963 0.5 508.15 6.72347 518.542 16.8231L502.293 33.0521C496.061 27.1035 487.619 23.4465 478.318 23.4465C468.035 23.4465 458.8 27.9187 452.446 35.0154Z" fill="black" stroke="black"/>
<path d="M340.729 93.8394H391.384V113.992H340.729V93.8394Z" fill="black" stroke="black"/>
<path d="M341.412 48.98H381.109V68.0369H341.412V48.98Z" fill="black" stroke="black"/>
<path d="M9.81637 165.732H29.7333V171.761H9.81637H9.31637V172.261V193.234H1.5V143.563H32.7298V149.662H9.81637H9.31637V150.162V165.232V165.732H9.81637Z" fill="black" stroke="black"/>
<path d="M101.604 164.652H121.939V170.613H101.604H101.104V171.113V186.703V187.203H101.604H125.457V193.234H93.2886V143.563H125.214V149.662H101.604H101.104V150.162V164.152V164.652H101.604Z" fill="black" stroke="black"/>
<path d="M189.682 175.357L189.682 175.357C188.83 174.643 187.68 173.976 186.25 173.35C184.821 172.724 182.993 172.075 180.778 171.399L180.775 171.399C178.378 170.684 176.17 169.868 174.149 168.951C172.139 168.039 170.42 166.983 168.984 165.786L168.984 165.786C167.555 164.595 166.443 163.232 165.641 161.692L165.641 161.691C164.846 160.171 164.442 158.421 164.442 156.424C164.442 154.457 164.863 152.657 165.695 151.013C166.532 149.364 167.71 147.936 169.236 146.723C170.762 145.514 172.598 144.568 174.754 143.887L174.603 143.41L174.754 143.887C176.906 143.207 179.293 142.865 181.922 142.865C184.73 142.865 187.237 143.27 189.451 144.071C191.674 144.876 193.538 145.965 195.052 147.329C196.57 148.702 197.729 150.286 198.537 152.088C199.278 153.742 199.678 155.496 199.738 157.352H191.958C191.912 156.258 191.713 155.235 191.361 154.285C190.953 153.181 190.323 152.225 189.479 151.419L189.479 151.418C188.628 150.607 187.564 149.986 186.3 149.551C185.028 149.11 183.54 148.894 181.851 148.894C180.26 148.894 178.859 149.072 177.662 149.439C176.476 149.803 175.467 150.318 174.651 150.995C173.836 151.669 173.228 152.478 172.837 153.412C172.449 154.337 172.258 155.331 172.258 156.391C172.258 158.459 173.249 160.168 175.133 161.498L175.133 161.498C176.977 162.797 179.751 163.976 183.419 165.048C186.255 165.878 188.7 166.795 190.76 167.801C192.816 168.808 194.508 169.933 195.848 171.18C197.182 172.426 198.165 173.816 198.811 175.36C199.456 176.902 199.782 178.65 199.782 180.612C199.782 182.68 199.373 184.52 198.564 186.149C197.75 187.783 196.594 189.175 195.085 190.323L195.084 190.324C193.574 191.476 191.734 192.366 189.554 192.99C187.375 193.614 184.937 193.929 182.234 193.929C179.841 193.929 177.481 193.605 175.157 192.954L175.157 192.954C172.84 192.308 170.766 191.335 168.935 190.037C167.114 188.743 165.646 187.133 164.533 185.201C163.505 183.414 162.949 181.327 162.881 178.921H170.701C170.754 180.372 171.046 181.659 171.595 182.766C172.198 183.982 173.026 184.984 174.081 185.764C175.126 186.54 176.356 187.099 177.758 187.45L177.758 187.45C179.148 187.796 180.641 187.97 182.234 187.97C185.355 187.97 187.792 187.338 189.465 185.997L189.465 185.996C191.131 184.656 191.969 182.87 191.969 180.681C191.969 179.611 191.81 178.64 191.482 177.773C191.144 176.876 190.536 176.073 189.682 175.357Z" fill="black" stroke="black"/>
<path d="M261.782 149.662H246.602V143.563H285.844V149.662H270.526H270.026V150.162V193.234H262.282V150.162V149.662H261.782Z" fill="black" stroke="black"/>
<path d="M344.976 193.234H337.195V143.563H344.976V193.234Z" fill="black" stroke="black"/>
<path d="M416.144 182.856L416.618 184.328L417.096 182.858L429.873 143.563H438.486L420.588 193.234H412.754L394.927 143.563H403.502L416.144 182.856Z" fill="black" stroke="black"/>
<path d="M502.116 181.772L501.999 181.437H501.644H481.995H481.64L481.523 181.773L477.528 193.234H469.443L488.229 143.563H495.446L514.265 193.234H506.145L502.116 181.772ZM483.998 174.671L483.765 175.336H484.47H499.172H499.877L499.644 174.671L492.291 153.652L491.819 152.303L491.347 153.652L483.998 174.671Z" fill="black" stroke="black"/>
<path d="M581.644 186.703V187.203H582.144H604.673V193.234H573.828V143.563H581.644V186.703Z" fill="black" stroke="black"/>
</svg>
