<svg width="630" height="132" viewBox="0 0 630 132" fill="none" xmlns="http://www.w3.org/2000/svg">
<path d="M6.392 29.904L7.26157 30.3978L7.26414 30.3933L6.392 29.904ZM22.392 13.52L21.8935 12.6531L21.8888 12.6558L22.392 13.52ZM70.52 14.672L71.0633 13.8324L71.0633 13.8324L70.52 14.672ZM86.392 34.64V35.64H87.8501L87.3249 34.2798L86.392 34.64ZM72.44 34.64L71.5316 35.0581L71.7995 35.64H72.44V34.64ZM61.688 22.224L61.1552 23.0703L61.1622 23.0746L61.688 22.224ZM28.28 22.224L28.7857 23.0867L28.7857 23.0867L28.28 22.224ZM16.632 34.64L17.5148 35.1099L17.5178 35.104L16.632 34.64ZM16.632 72.016L15.7462 72.48L15.7493 72.4858L16.632 72.016ZM28.28 84.304L28.7857 83.4413L28.7857 83.4413L28.28 84.304ZM61.688 84.432L62.2095 85.2853L62.2138 85.2826L61.688 84.432ZM72.44 72.016V71.016H71.7995L71.5316 71.5979L72.44 72.016ZM86.392 72.016L87.3237 72.3793L87.8554 71.016H86.392V72.016ZM70.52 91.856L71.0563 92.7001L71.0633 92.6956L70.52 91.856ZM22.392 93.008L21.8888 93.8722L21.8952 93.8759L21.9017 93.8796L22.392 93.008ZM6.392 76.752L7.26156 76.2582L6.392 76.752ZM1.504 53.328C1.504 44.7802 3.42969 37.1452 7.26156 30.3978L5.52244 29.4102C1.50364 36.4868 -0.496 44.4678 -0.496 53.328H1.504ZM7.26414 30.3933C11.1048 23.5469 16.3126 18.2171 22.8952 14.3842L21.8888 12.6558C14.9887 16.6736 9.52991 22.2664 5.51986 29.4147L7.26414 30.3933ZM22.8905 14.3869C29.5576 10.5533 36.9363 8.632 45.048 8.632V6.632C36.605 6.632 28.8797 8.63603 21.8935 12.6531L22.8905 14.3869ZM45.048 8.632C54.6083 8.632 62.9051 10.9358 69.9768 15.5116L71.0633 13.8324C63.6283 9.02155 54.9437 6.632 45.048 6.632V8.632ZM69.9768 15.5116C77.0403 20.0821 82.2016 26.564 85.4591 35.0002L87.3249 34.2798C83.9264 25.4787 78.5064 18.6486 71.0633 13.8324L69.9768 15.5116ZM86.392 33.64H72.44V35.64H86.392V33.64ZM73.3484 34.2219C70.7977 28.6808 67.0867 24.3857 62.2138 21.3734L61.1622 23.0746C65.676 25.8649 69.1329 29.8472 71.5316 35.0581L73.3484 34.2219ZM62.2208 21.3778C57.425 18.3582 51.6855 16.872 45.048 16.872V18.872C51.3812 18.872 56.735 20.2871 61.1552 23.0702L62.2208 21.3778ZM45.048 16.872C38.6566 16.872 32.89 18.3624 27.7743 21.3613L28.7857 23.0867C33.5686 20.2829 38.9807 18.872 45.048 18.872V16.872ZM27.7743 21.3613C22.6539 24.3629 18.6438 28.6442 15.7462 34.176L17.5178 35.104C20.2522 29.8838 24.0074 25.8878 28.7857 23.0867L27.7743 21.3613ZM15.7493 34.1701C12.8425 39.6313 11.408 46.0281 11.408 53.328H13.408C13.408 46.2919 14.7895 40.2301 17.5147 35.1098L15.7493 34.1701ZM11.408 53.328C11.408 60.5452 12.8436 66.9387 15.7462 72.48L17.5178 71.552C14.7884 66.3413 13.408 60.2761 13.408 53.328H11.408ZM15.7493 72.4858C18.6481 77.9322 22.658 82.1675 27.7743 85.1667L28.7857 83.4413C24.0033 80.6378 20.2479 76.6812 17.5147 71.5461L15.7493 72.4858ZM27.7743 85.1667C32.89 88.1656 38.6566 89.656 45.048 89.656V87.656C38.9807 87.656 33.5686 86.2451 28.7857 83.4413L27.7743 85.1667ZM45.048 89.656C51.6802 89.656 57.4155 88.2149 62.2095 85.2853L61.1666 83.5787C56.7445 86.2811 51.3865 87.656 45.048 87.656V89.656ZM62.2138 85.2826C67.0867 82.2703 70.7977 77.9752 73.3484 72.4341L71.5316 71.5979C69.1329 76.8088 65.676 80.7911 61.1622 83.5814L62.2138 85.2826ZM72.44 73.016H86.392V71.016H72.44V73.016ZM85.4604 71.6527C82.2038 80.0029 77.0429 86.4442 69.9768 91.0164L71.0633 92.6956C78.5038 87.8811 83.9243 81.0958 87.3237 72.3793L85.4604 71.6527ZM69.9838 91.0119C62.9112 95.5051 54.6119 97.768 45.048 97.768V99.768C54.9401 99.768 63.6221 97.4229 71.0562 92.7001L69.9838 91.0119ZM45.048 97.768C36.9323 97.768 29.5507 95.8874 22.8823 92.1364L21.9017 93.8796C28.8867 97.8086 36.609 99.768 45.048 99.768V97.768ZM22.8952 92.1438C16.3096 88.3092 11.1014 83.0196 7.26156 76.2582L5.52244 77.2458C9.53329 84.3084 14.9918 89.8562 21.8888 93.8722L22.8952 92.1438ZM7.26156 76.2582C3.42969 69.5108 1.504 61.8758 1.504 53.328H-0.496C-0.496 62.1882 1.50364 70.1692 5.52244 77.2458L7.26156 76.2582ZM115.379 39.248H114.379L116.27 39.7028L115.379 39.248ZM124.083 29.904L123.583 29.0381L123.574 29.0431L124.083 29.904ZM138.035 26.576H139.035V25.576H138.035V26.576ZM138.035 38.608V39.608H139.035V38.608H138.035ZM115.379 98V99H116.379V98H115.379ZM103.731 98H102.731V99H103.731V98ZM103.731 27.856V26.856H102.731V27.856H103.731ZM115.379 27.856H116.379V26.856H115.379V27.856ZM116.27 39.7028C118.234 35.8552 121.006 32.8839 124.592 30.7649L123.574 29.0431C119.651 31.3614 116.62 34.6195 114.488 38.7932L116.27 39.7028ZM124.583 30.7699C128.24 28.6573 132.709 27.576 138.035 27.576V25.576C132.438 25.576 127.606 26.7134 123.583 29.0381L124.583 30.7699ZM137.035 26.576V38.608H139.035V26.576H137.035ZM138.035 37.608H134.963V39.608H138.035V37.608ZM134.963 37.608C128.259 37.608 123.053 39.4302 119.54 43.2423C116.04 47.0389 114.379 52.6385 114.379 59.856H116.379C116.379 52.9082 117.982 47.8837 121.01 44.5977C124.025 41.3271 128.611 39.608 134.963 39.608V37.608ZM114.379 59.856V98H116.379V59.856H114.379ZM115.379 97H103.731V99H115.379V97ZM104.731 98V27.856H102.731V98H104.731ZM103.731 28.856H115.379V26.856H103.731V28.856ZM114.379 27.856V39.248H116.379V27.856H114.379ZM211.897 27.856L212.822 28.2349L213.387 26.856H211.897V27.856ZM169.657 131.024V132.024H170.328L170.582 131.403L169.657 131.024ZM157.625 131.024L156.699 130.645L156.135 132.024H157.625V131.024ZM171.449 97.232L172.375 97.6106L172.529 97.2326L172.375 96.8544L171.449 97.232ZM143.161 27.856V26.856H141.673L142.235 28.2336L143.161 27.856ZM156.089 27.856L157.021 27.4948L156.774 26.856H156.089V27.856ZM178.105 84.688L177.173 85.0492L178.11 87.4704L179.039 85.0456L178.105 84.688ZM199.865 27.856V26.856H199.177L198.931 27.4984L199.865 27.856ZM210.972 27.4771L168.732 130.645L170.582 131.403L212.822 28.2349L210.972 27.4771ZM169.657 130.024H157.625V132.024H169.657V130.024ZM158.551 131.403L172.375 97.6106L170.523 96.8534L156.699 130.645L158.551 131.403ZM172.375 96.8544L144.087 27.4784L142.235 28.2336L170.523 97.6096L172.375 96.8544ZM143.161 28.856H156.089V26.856H143.161V28.856ZM155.157 28.2172L177.173 85.0492L179.037 84.3268L157.021 27.4948L155.157 28.2172ZM179.039 85.0456L200.799 28.2136L198.931 27.4984L177.171 84.3304L179.039 85.0456ZM199.865 28.856H211.897V26.856H199.865V28.856ZM233.974 96.464L233.571 97.3793L233.579 97.3827L233.587 97.386L233.974 96.464ZM223.862 88.784L223.059 89.3807L223.067 89.3907L223.862 88.784ZM219.766 77.392V76.392H218.704L218.768 77.4519L219.766 77.392ZM231.798 77.392L232.793 77.2949L232.705 76.392H231.798V77.392ZM236.662 85.968L236.054 86.7624L236.066 86.7707L236.662 85.968ZM258.55 72.144L258.06 73.0156L258.07 73.0215L258.081 73.0271L258.55 72.144ZM245.878 67.664L245.624 68.6313L245.632 68.6333L245.878 67.664ZM233.078 63.568L232.67 64.4808L232.684 64.4872L232.698 64.4932L233.078 63.568ZM224.63 57.296L223.856 57.9292L223.867 57.942L223.877 57.9545L224.63 57.296ZM224.374 36.432L223.56 35.8508L223.56 35.8508L224.374 36.432ZM233.462 29.392L233.861 30.3091L233.869 30.3055L233.877 30.3017L233.462 29.392ZM265.718 32.592L265.083 33.3647L265.718 32.592ZM273.398 48.72V49.72H274.449L274.397 48.6701L273.398 48.72ZM261.75 48.72L260.752 48.7896L260.817 49.72H261.75V48.72ZM257.27 39.888L256.627 40.6542L256.633 40.6592L256.639 40.6641L257.27 39.888ZM236.534 39.248L235.947 38.4381L235.947 38.4381L236.534 39.248ZM234.998 52.048L234.271 52.7346L234.291 52.7554L234.311 52.775L234.998 52.048ZM240.63 55.632L240.24 56.553L240.261 56.5618L240.283 56.5697L240.63 55.632ZM250.102 58.576L249.835 59.5398L249.84 59.5411L250.102 58.576ZM262.39 62.672L261.993 63.5899L262.004 63.5944L262.014 63.5987L262.39 62.672ZM270.454 68.56L269.688 69.2026L269.694 69.2098L269.7 69.2168L270.454 68.56ZM274.038 78.928H275.038V78.918L275.038 78.908L274.038 78.928ZM270.838 89.296L270.017 88.7256L270.017 88.7256L270.838 89.296ZM261.75 96.592L262.156 97.5059L262.165 97.5017L261.75 96.592ZM248.438 98.152C243.174 98.152 238.487 97.2749 234.361 95.542L233.587 97.386C237.994 99.2371 242.95 100.152 248.438 100.152V98.152ZM234.377 95.5487C230.242 93.7296 227.015 91.2675 224.657 88.1773L223.067 89.3907C225.658 92.7859 229.172 95.4437 233.571 97.3793L234.377 95.5487ZM224.664 88.1873C222.31 85.0204 221.009 81.4109 220.764 77.3321L218.768 77.4519C219.035 81.9064 220.465 85.8916 223.06 89.3807L224.664 88.1873ZM219.766 78.392H231.798V76.392H219.766V78.392ZM230.803 77.4891C231.172 81.2759 232.943 84.3826 236.055 86.7624L237.269 85.1736C234.579 83.1161 233.107 80.5055 232.793 77.2949L230.803 77.4891ZM236.066 86.7707C239.268 89.1498 243.378 90.296 248.31 90.296V88.296C243.685 88.296 240.029 87.2235 237.258 85.1653L236.066 86.7707ZM248.31 90.296C252.886 90.296 256.625 89.2844 259.414 87.1456L258.198 85.5584C255.867 87.345 252.609 88.296 248.31 88.296V90.296ZM259.414 87.1456C262.198 85.0112 263.646 82.2534 263.646 78.928H261.646C261.646 81.5759 260.534 83.7675 258.198 85.5584L259.414 87.1456ZM263.646 78.928C263.646 77.2399 263.269 75.7217 262.478 74.4111C261.687 73.1009 260.517 72.0564 259.019 71.2609L258.081 73.0271C259.314 73.6822 260.192 74.4937 260.766 75.4449C261.34 76.3957 261.646 77.5441 261.646 78.928H263.646ZM259.04 71.2724C256.192 69.6706 251.866 68.1516 246.124 66.6947L245.632 68.6333C251.325 70.0778 255.446 71.5454 258.06 73.0156L259.04 71.2724ZM246.132 66.6967C240.95 65.3377 236.73 63.9853 233.458 62.6428L232.698 64.4932C236.082 65.8813 240.395 67.2596 245.624 68.6313L246.132 66.6967ZM233.486 62.6552C230.378 61.2647 227.679 59.2619 225.383 56.6375L223.877 57.9545C226.36 60.7914 229.292 62.9699 232.67 64.4808L233.486 62.6552ZM225.404 56.6628C223.279 54.0655 222.174 50.6375 222.174 46.288H220.174C220.174 50.9838 221.373 54.8945 223.856 57.9292L225.404 56.6628ZM222.174 46.288C222.174 42.9177 223.172 39.8347 225.188 37.0132L223.56 35.8508C221.309 39.0027 220.174 42.4903 220.174 46.288H222.174ZM225.188 37.0132C227.199 34.1971 230.074 31.9556 233.861 30.3091L233.063 28.4749C229 30.2417 225.815 32.6936 223.56 35.8508L225.188 37.0132ZM233.877 30.3017C237.652 28.5783 241.987 27.704 246.902 27.704V25.704C241.748 25.704 237.122 26.6217 233.047 28.4823L233.877 30.3017ZM246.902 27.704C254.497 27.704 260.525 29.6207 265.083 33.3647L266.353 31.8193C261.353 27.7126 254.838 25.704 246.902 25.704V27.704ZM265.083 33.3647C269.62 37.0912 272.07 42.1917 272.399 48.7699L274.397 48.6701C274.043 41.595 271.373 35.9434 266.353 31.8193L265.083 33.3647ZM273.398 47.72H261.75V49.72H273.398V47.72ZM262.748 48.6504C262.473 44.719 260.857 41.5138 257.901 39.1119L256.639 40.6641C259.144 42.6995 260.515 45.3823 260.752 48.7896L262.748 48.6504ZM257.913 39.1218C255.038 36.7106 251.202 35.56 246.518 35.56V37.56C250.879 37.56 254.212 38.628 256.627 40.6542L257.913 39.1218ZM246.518 35.56C242.202 35.56 238.645 36.4843 235.947 38.4381L237.121 40.0579C239.372 38.4277 242.471 37.56 246.518 37.56V35.56ZM235.947 38.4381C233.229 40.4064 231.822 43.0465 231.822 46.288H233.822C233.822 43.7268 234.889 41.6736 237.121 40.0579L235.947 38.4381ZM231.822 46.288C231.822 48.8221 232.628 50.9954 234.271 52.7346L235.725 51.3614C234.466 50.0286 233.822 48.3619 233.822 46.288H231.822ZM234.311 52.775C235.945 54.3181 237.927 55.5743 240.24 56.553L241.02 54.711C238.896 53.8124 237.123 52.6792 235.685 51.321L234.311 52.775ZM240.283 56.5697C242.625 57.4373 245.813 58.4273 249.835 59.5398L250.369 57.6122C246.369 56.506 243.243 55.5333 240.977 54.6942L240.283 56.5697ZM249.84 59.5411C254.85 60.8996 258.896 62.2505 261.993 63.5899L262.787 61.7541C259.569 60.3628 255.424 58.983 250.364 57.6109L249.84 59.5411ZM262.014 63.5987C265.018 64.8165 267.573 66.6807 269.688 69.2026L271.22 67.9174C268.898 65.1486 266.077 63.0875 262.766 61.7453L262.014 63.5987ZM269.7 69.2168C271.818 71.6492 272.957 74.8631 273.038 78.948L275.038 78.908C274.949 74.4595 273.698 70.7615 271.208 67.9032L269.7 69.2168ZM273.038 78.928C273.038 82.5699 272.03 85.8258 270.017 88.7256L271.659 89.8664C273.912 86.6222 275.038 82.9661 275.038 78.928H273.038ZM270.017 88.7256C268.001 91.6287 265.122 93.9533 261.335 95.6823L262.165 97.5017C266.228 95.6467 269.409 93.1073 271.659 89.8664L270.017 88.7256ZM261.344 95.6782C257.654 97.3179 253.36 98.152 248.438 98.152V100.152C253.585 100.152 258.166 99.2794 262.156 97.5058L261.344 95.6782ZM304.689 37.456V36.456H303.689V37.456H304.689ZM306.865 86.096L306.158 86.8031L306.169 86.8138L306.18 86.8242L306.865 86.096ZM322.993 88.144H323.993V87.144H322.993V88.144ZM322.993 98V99H323.993V98H322.993ZM297.905 93.52L297.228 94.2555L297.905 93.52ZM293.041 37.456H294.041V36.456H293.041V37.456ZM283.953 37.456H282.953V38.456H283.953V37.456ZM283.953 27.856V26.856H282.953V27.856H283.953ZM293.041 27.856V28.856H294.041V27.856H293.041ZM293.041 10.192V9.19199H292.041V10.192H293.041ZM304.689 10.192H305.689V9.19199H304.689V10.192ZM304.689 27.856H303.689V28.856H304.689V27.856ZM322.993 27.856H323.993V26.856H322.993V27.856ZM322.993 37.456V38.456H323.993V37.456H322.993ZM303.689 37.456V78.8H305.689V37.456H303.689ZM303.689 78.8C303.689 82.312 304.428 85.0731 306.158 86.8031L307.572 85.3889C306.401 84.2175 305.689 82.1147 305.689 78.8H303.689ZM306.18 86.8242C307.917 88.459 310.763 89.144 314.417 89.144V87.144C310.903 87.144 308.715 86.4637 307.55 85.3678L306.18 86.8242ZM314.417 89.144H322.993V87.144H314.417V89.144ZM321.993 88.144V98H323.993V88.144H321.993ZM322.993 97H312.497V99H322.993V97ZM312.497 97C306.146 97 301.57 95.536 298.582 92.7845L297.228 94.2555C300.726 97.4774 305.877 99 312.497 99V97ZM298.582 92.7845C295.635 90.0698 294.041 85.4987 294.041 78.8H292.041C292.041 85.7547 293.689 90.9968 297.228 94.2555L298.582 92.7845ZM294.041 78.8V37.456H292.041V78.8H294.041ZM293.041 36.456H283.953V38.456H293.041V36.456ZM284.953 37.456V27.856H282.953V37.456H284.953ZM283.953 28.856H293.041V26.856H283.953V28.856ZM294.041 27.856V10.192H292.041V27.856H294.041ZM293.041 11.192H304.689V9.19199H293.041V11.192ZM303.689 10.192V27.856H305.689V10.192H303.689ZM304.689 28.856H322.993V26.856H304.689V28.856ZM321.993 27.856V37.456H323.993V27.856H321.993ZM322.993 36.456H304.689V38.456H322.993V36.456ZM337.106 43.856L337.986 44.3309L337.989 44.3252L337.106 43.856ZM349.01 31.184L348.506 30.3202L348.5 30.3239L349.01 31.184ZM382.034 30.672L381.529 31.5352L381.529 31.5352L382.034 30.672ZM392.146 40.656L391.271 41.1401L393.146 40.656H392.146ZM392.146 27.856V26.856H391.146V27.856H392.146ZM403.922 27.856H404.922V26.856H403.922V27.856ZM403.922 98V99H404.922V98H403.922ZM392.146 98H391.146V99H392.146V98ZM392.146 84.944H393.146V81.1265L391.274 84.4537L392.146 84.944ZM381.778 95.184L382.283 96.0472L382.288 96.0443L381.778 95.184ZM349.01 94.544L348.489 95.3976L348.489 95.3976L349.01 94.544ZM337.106 81.616L337.992 81.1525L337.992 81.1525L337.106 81.616ZM380.242 40.016L379.731 40.8753L379.742 40.8824L379.755 40.8892L380.242 40.016ZM356.434 39.888L355.938 39.0198L355.938 39.0198L356.434 39.888ZM347.858 48.848L348.737 49.3255L348.737 49.3255L347.858 48.848ZM347.858 76.752L346.975 77.2216L346.979 77.2295L347.858 76.752ZM356.434 85.84L355.923 86.6993L355.93 86.7038L355.938 86.7082L356.434 85.84ZM380.242 85.84L380.738 86.7083L380.745 86.7045L380.242 85.84ZM388.946 76.752L389.825 77.2295L389.829 77.2216L388.946 76.752ZM333.754 62.672C333.754 55.641 335.176 49.5376 337.986 44.3309L336.226 43.3811C333.233 48.9264 331.754 55.367 331.754 62.672H333.754ZM337.989 44.3252C340.809 39.0163 344.652 34.9317 349.52 32.0441L348.5 30.3239C343.298 33.4096 339.205 37.773 336.223 43.3868L337.989 44.3252ZM349.514 32.0478C354.473 29.1549 359.972 27.704 366.034 27.704V25.704C359.637 25.704 353.787 27.2397 348.506 30.3202L349.514 32.0478ZM366.034 27.704C372.031 27.704 377.184 28.9939 381.529 31.5352L382.539 29.8088C377.838 27.0595 372.325 25.704 366.034 25.704V27.704ZM381.529 31.5352C385.919 34.103 389.151 37.3082 391.271 41.1401L393.021 40.1719C390.703 35.9825 387.194 32.5317 382.539 29.8088L381.529 31.5352ZM393.146 40.656V27.856H391.146V40.656H393.146ZM392.146 28.856H403.922V26.856H392.146V28.856ZM402.922 27.856V98H404.922V27.856H402.922ZM403.922 97H392.146V99H403.922V97ZM393.146 98V84.944H391.146V98H393.146ZM391.274 84.4537C389.068 88.3764 385.747 91.6698 381.268 94.3237L382.288 96.0443C387.025 93.2369 390.616 89.7036 393.018 85.4343L391.274 84.4537ZM381.273 94.3208C376.926 96.8633 371.815 98.152 365.906 98.152V100.152C372.114 100.152 377.584 98.7953 382.283 96.0472L381.273 94.3208ZM365.906 98.152C359.85 98.152 354.4 96.6612 349.531 93.6904L348.489 95.3976C353.69 98.5708 359.504 100.152 365.906 100.152V98.152ZM349.531 93.6904C344.661 90.7187 340.815 86.5487 337.992 81.1525L336.22 82.0795C339.2 87.7767 343.29 92.2253 348.489 95.3976L349.531 93.6904ZM337.992 81.1525C335.175 75.7667 333.754 69.6147 333.754 62.672H331.754C331.754 69.8946 333.234 76.3719 336.22 82.0795L337.992 81.1525ZM393.146 62.8C393.146 57.3733 392.051 52.5952 389.825 48.4985L388.067 49.4535C390.108 53.2075 391.146 57.6454 391.146 62.8H393.146ZM389.825 48.4985C387.607 44.4179 384.575 41.2889 380.729 39.1428L379.755 40.8892C383.248 42.8391 386.018 45.6835 388.067 49.4535L389.825 48.4985ZM380.753 39.1567C377.008 36.9272 372.862 35.816 368.338 35.816V37.816C372.518 37.816 376.308 38.8381 379.731 40.8753L380.753 39.1567ZM368.338 35.816C363.822 35.816 359.681 36.8807 355.938 39.0198L356.93 40.7562C360.355 38.7993 364.15 37.816 368.338 37.816V35.816ZM355.938 39.0198C352.179 41.1675 349.194 44.2959 346.979 48.3705L348.737 49.3255C350.789 45.5495 353.521 42.7045 356.93 40.7562L355.938 39.0198ZM346.979 48.3705C344.753 52.4672 343.658 57.2453 343.658 62.672H345.658C345.658 57.5174 346.696 53.0795 348.737 49.3255L346.979 48.3705ZM343.658 62.672C343.658 68.1818 344.752 73.042 346.975 77.2216L348.741 76.2824C346.697 72.4407 345.658 67.9142 345.658 62.672H343.658ZM346.979 77.2295C349.192 81.3011 352.173 84.4675 355.923 86.6993L356.945 84.9807C353.527 82.9459 350.79 80.0535 348.737 76.2745L346.979 77.2295ZM355.938 86.7082C359.681 88.8473 363.822 89.912 368.338 89.912V87.912C364.15 87.912 360.355 86.9287 356.93 84.9718L355.938 86.7082ZM368.338 89.912C372.854 89.912 376.995 88.8473 380.738 86.7082L379.746 84.9718C376.321 86.9287 372.526 87.912 368.338 87.912V89.912ZM380.745 86.7045C384.581 84.4741 387.609 81.307 389.825 77.2295L388.067 76.2745C386.017 80.0476 383.242 82.9392 379.739 84.9755L380.745 86.7045ZM389.829 77.2216C392.051 73.0442 393.146 68.2274 393.146 62.8H391.146C391.146 67.954 390.108 72.4384 388.063 76.2824L389.829 77.2216ZM435.254 3.28H436.254V2.28H435.254V3.28ZM435.254 98V99H436.254V98H435.254ZM423.606 98H422.606V99H423.606V98ZM423.606 3.28V2.28H422.606V3.28H423.606ZM434.254 3.28V98H436.254V3.28H434.254ZM435.254 97H423.606V99H435.254V97ZM424.606 98V3.28H422.606V98H424.606ZM423.606 4.28H435.254V2.28H423.606V4.28ZM456.898 8.784V7.784H456.125L455.93 8.53244L456.898 8.784ZM469.826 8.784L470.747 9.1735L471.335 7.784H469.826V8.784ZM457.538 37.84V38.84H458.201L458.459 38.2295L457.538 37.84ZM449.346 37.84L448.378 37.5884L448.053 38.84H449.346V37.84ZM456.898 9.784H469.826V7.784H456.898V9.784ZM468.905 8.39449L456.617 37.4505L458.459 38.2295L470.747 9.1735L468.905 8.39449ZM457.538 36.84H449.346V38.84H457.538V36.84ZM450.314 38.0916L457.866 9.03555L455.93 8.53244L448.378 37.5884L450.314 38.0916ZM509.218 87.248L508.28 87.5938L509.221 90.1473L510.157 87.592L509.218 87.248ZM530.978 27.856V26.856H530.279L530.039 27.512L530.978 27.856ZM543.394 27.856L544.325 28.2212L544.861 26.856H543.394V27.856ZM515.874 98V99H516.556L516.805 98.3652L515.874 98ZM502.306 98L501.375 98.3652L501.624 99H502.306V98ZM474.786 27.856V26.856H473.319L473.855 28.2212L474.786 27.856ZM487.33 27.856L488.268 27.5102L488.027 26.856H487.33V27.856ZM510.157 87.592L531.917 28.2L530.039 27.512L508.279 86.904L510.157 87.592ZM530.978 28.856H543.394V26.856H530.978V28.856ZM542.463 27.4908L514.943 97.6348L516.805 98.3652L544.325 28.2212L542.463 27.4908ZM515.874 97H502.306V99H515.874V97ZM503.237 97.6348L475.717 27.4908L473.855 28.2212L501.375 98.3652L503.237 97.6348ZM474.786 28.856H487.33V26.856H474.786V28.856ZM486.392 28.2018L508.28 87.5938L510.156 86.9022L488.268 27.5102L486.392 28.2018ZM555.24 14.16L555.947 13.4529L555.947 13.4529L555.24 14.16ZM555.24 2.896L555.947 3.6031L555.947 3.6031L555.24 2.896ZM566.248 2.896L565.521 3.58262L565.531 3.593L565.541 3.6031L566.248 2.896ZM566.248 14.16L565.541 13.4529L565.531 13.463L565.521 13.4734L566.248 14.16ZM566.504 27.856H567.504V26.856H566.504V27.856ZM566.504 98V99H567.504V98H566.504ZM554.856 98H553.856V99H554.856V98ZM554.856 27.856V26.856H553.856V27.856H554.856ZM560.872 15.464C558.912 15.464 557.291 14.7969 555.947 13.4529L554.533 14.8671C556.261 16.5951 558.394 17.464 560.872 17.464V15.464ZM555.947 13.4529C554.603 12.1089 553.936 10.4878 553.936 8.52799H551.936C551.936 11.0055 552.805 13.1391 554.533 14.8671L555.947 13.4529ZM553.936 8.52799C553.936 6.56819 554.603 4.94712 555.947 3.6031L554.533 2.18889C552.805 3.91687 551.936 6.05047 551.936 8.52799H553.936ZM555.947 3.6031C557.291 2.25909 558.912 1.592 560.872 1.592V-0.408005C558.394 -0.408005 556.261 0.460906 554.533 2.18889L555.947 3.6031ZM560.872 1.592C562.733 1.592 564.261 2.24884 565.521 3.58262L566.975 2.20937C565.333 0.47115 563.277 -0.408005 560.872 -0.408005V1.592ZM565.541 3.6031C566.885 4.94712 567.552 6.56819 567.552 8.52799H569.552C569.552 6.05047 568.683 3.91687 566.955 2.18889L565.541 3.6031ZM567.552 8.52799C567.552 10.4878 566.885 12.1089 565.541 13.4529L566.955 14.8671C568.683 13.1391 569.552 11.0055 569.552 8.52799H567.552ZM565.521 13.4734C564.261 14.8072 562.733 15.464 560.872 15.464V17.464C563.277 17.464 565.333 16.5848 566.975 14.8466L565.521 13.4734ZM565.504 27.856V98H567.504V27.856H565.504ZM566.504 97H554.856V99H566.504V97ZM555.856 98V27.856H553.856V98H555.856ZM554.856 28.856H566.504V26.856H554.856V28.856ZM595.06 88.4L594.229 87.8439L593.188 89.4H595.06V88.4ZM629.492 88.4H630.492V87.4H629.492V88.4ZM629.492 98V99H630.492V98H629.492ZM581.748 98H580.748V99H581.748V98ZM581.748 88.4L580.916 87.8453L580.748 88.0972V88.4H581.748ZM615.796 37.328L616.628 37.8827L617.665 36.328H615.796V37.328ZM582.004 37.328H581.004V38.328H582.004V37.328ZM582.004 27.856V26.856H581.004V27.856H582.004ZM629.236 27.856H630.236V26.856H629.236V27.856ZM629.236 37.328L630.067 37.8841L630.236 37.6317V37.328H629.236ZM595.06 89.4H629.492V87.4H595.06V89.4ZM628.492 88.4V98H630.492V88.4H628.492ZM629.492 97H581.748V99H629.492V97ZM582.748 98V88.4H580.748V98H582.748ZM582.58 88.9547L616.628 37.8827L614.964 36.7733L580.916 87.8453L582.58 88.9547ZM615.796 36.328H582.004V38.328H615.796V36.328ZM583.004 37.328V27.856H581.004V37.328H583.004ZM582.004 28.856H629.236V26.856H582.004V28.856ZM628.236 27.856V37.328H630.236V27.856H628.236ZM628.405 36.7719L594.229 87.8439L595.891 88.9561L630.067 37.8841L628.405 36.7719Z" fill="black"/>
</svg>
