<svg width="645" height="296" viewBox="0 0 645 296" fill="none" xmlns="http://www.w3.org/2000/svg">
<mask id="path-1-outside-1_344_3" maskUnits="userSpaceOnUse" x="66" y="25" width="512" height="51" fill="black">
<rect fill="white" x="66" y="25" width="512" height="51"/>
<path d="M68.795 50.315C68.795 45.895 69.7917 41.93 71.785 38.42C73.7783 34.8667 76.4867 32.0933 79.91 30.1C83.3767 28.1067 87.2117 27.11 91.415 27.11C96.355 27.11 100.667 28.3017 104.35 30.685C108.033 33.0683 110.72 36.4483 112.41 40.825H105.325C104.068 38.095 102.248 35.9933 99.865 34.52C97.525 33.0467 94.7083 32.31 91.415 32.31C88.2517 32.31 85.4133 33.0467 82.9 34.52C80.3867 35.9933 78.415 38.095 76.985 40.825C75.555 43.5117 74.84 46.675 74.84 50.315C74.84 53.9117 75.555 57.075 76.985 59.805C78.415 62.4917 80.3867 64.5717 82.9 66.045C85.4133 67.5183 88.2517 68.255 91.415 68.255C94.7083 68.255 97.525 67.54 99.865 66.11C102.248 64.6367 104.068 62.535 105.325 59.805H112.41C110.72 64.1383 108.033 67.4967 104.35 69.88C100.667 72.22 96.355 73.39 91.415 73.39C87.2117 73.39 83.3767 72.415 79.91 70.465C76.4867 68.4717 73.7783 65.72 71.785 62.21C69.7917 58.7 68.795 54.735 68.795 50.315ZM158.07 73L147.28 54.475H140.13V73H134.215V27.695H148.84C152.263 27.695 155.145 28.28 157.485 29.45C159.868 30.62 161.645 32.2017 162.815 34.195C163.985 36.1883 164.57 38.4633 164.57 41.02C164.57 44.14 163.66 46.8917 161.84 49.275C160.063 51.6583 157.377 53.24 153.78 54.02L165.155 73H158.07ZM140.13 49.73H148.84C152.047 49.73 154.452 48.95 156.055 47.39C157.658 45.7867 158.46 43.6633 158.46 41.02C158.46 38.3333 157.658 36.2533 156.055 34.78C154.495 33.3067 152.09 32.57 148.84 32.57H140.13V49.73ZM218.481 27.695L203.726 55.905V73H197.811V55.905L182.991 27.695H189.556L200.736 50.64L211.916 27.695H218.481ZM252.085 73.455C249.095 73.455 246.408 72.935 244.025 71.895C241.685 70.8117 239.843 69.3383 238.5 67.475C237.157 65.5683 236.463 63.38 236.42 60.91H242.725C242.942 63.0333 243.808 64.8317 245.325 66.305C246.885 67.735 249.138 68.45 252.085 68.45C254.902 68.45 257.112 67.7567 258.715 66.37C260.362 64.94 261.185 63.12 261.185 60.91C261.185 59.1767 260.708 57.7683 259.755 56.685C258.802 55.6017 257.61 54.7783 256.18 54.215C254.75 53.6517 252.822 53.045 250.395 52.395C247.405 51.615 245 50.835 243.18 50.055C241.403 49.275 239.865 48.0617 238.565 46.415C237.308 44.725 236.68 42.4717 236.68 39.655C236.68 37.185 237.308 34.9967 238.565 33.09C239.822 31.1833 241.577 29.71 243.83 28.67C246.127 27.63 248.748 27.11 251.695 27.11C255.942 27.11 259.408 28.1717 262.095 30.295C264.825 32.4183 266.363 35.235 266.71 38.745H260.21C259.993 37.0117 259.083 35.495 257.48 34.195C255.877 32.8517 253.753 32.18 251.11 32.18C248.64 32.18 246.625 32.83 245.065 34.13C243.505 35.3867 242.725 37.1633 242.725 39.46C242.725 41.1067 243.18 42.45 244.09 43.49C245.043 44.53 246.192 45.3317 247.535 45.895C248.922 46.415 250.85 47.0217 253.32 47.715C256.31 48.5383 258.715 49.3617 260.535 50.185C262.355 50.965 263.915 52.2 265.215 53.89C266.515 55.5367 267.165 57.79 267.165 60.65C267.165 62.86 266.58 64.94 265.41 66.89C264.24 68.84 262.507 70.4217 260.21 71.635C257.913 72.8483 255.205 73.455 252.085 73.455ZM316.754 27.695V32.505H304.404V73H298.489V32.505H286.074V27.695H316.754ZM363.815 62.925H344.055L340.415 73H334.175L350.555 27.955H357.38L373.695 73H367.455L363.815 62.925ZM362.125 58.115L353.935 35.235L345.745 58.115H362.125ZM399.749 68.19H415.609V73H393.834V27.695H399.749V68.19ZM435.801 27.695H442.366L436.126 42.45H431.966L435.801 27.695ZM499.549 27.695L482.454 73H475.629L458.534 27.695H464.839L479.074 66.76L493.309 27.695H499.549ZM524.95 27.695V73H519.035V27.695H524.95ZM553.036 67.865H575.136V73H546.016V68.32L567.986 32.83H546.276V27.695H575.006V32.375L553.036 67.865Z"/>
</mask>
<path d="M71.785 38.42L73.5241 39.4077L73.5293 39.3985L71.785 38.42ZM79.91 30.1L78.913 28.3662L78.9036 28.3716L79.91 30.1ZM104.35 30.685L105.437 29.0059L104.35 30.685ZM112.41 40.825V42.825H115.326L114.276 40.1046L112.41 40.825ZM105.325 40.825L103.508 41.6613L104.044 42.825H105.325V40.825ZM99.865 34.52L98.7994 36.2125L98.8063 36.2169L98.8134 36.2212L99.865 34.52ZM82.9 34.52L83.9114 36.2454H83.9114L82.9 34.52ZM76.985 40.825L78.7505 41.7647L78.7567 41.753L76.985 40.825ZM76.985 59.805L75.2133 60.733L75.2195 60.7447L76.985 59.805ZM82.9 66.045L83.9114 64.3196L82.9 66.045ZM99.865 66.11L100.908 67.8166L100.917 67.8112L99.865 66.11ZM105.325 59.805V57.805H104.044L103.508 58.9687L105.325 59.805ZM112.41 59.805L114.273 60.5317L115.337 57.805H112.41V59.805ZM104.35 69.88L105.422 71.5681L105.43 71.5637L105.437 71.5591L104.35 69.88ZM79.91 70.465L78.9036 72.1934L78.9165 72.2008L78.9295 72.2082L79.91 70.465ZM71.785 62.21L73.5241 61.2224L71.785 62.21ZM70.795 50.315C70.795 46.2075 71.7177 42.5885 73.5241 39.4076L70.0459 37.4324C67.8656 41.2715 66.795 45.5825 66.795 50.315H70.795ZM73.5293 39.3985C75.3532 36.1472 77.8106 33.6368 80.9164 31.8283L78.9036 28.3716C75.1627 30.5499 72.2035 33.5861 70.0407 37.4415L73.5293 39.3985ZM80.9069 31.8338C84.0546 30.0239 87.5429 29.11 91.415 29.11V25.11C86.8804 25.11 82.6988 26.1894 78.9131 28.3662L80.9069 31.8338ZM91.415 29.11C96.0196 29.11 99.9435 30.2159 103.264 32.3641L105.437 29.0059C101.39 26.3874 96.6904 25.11 91.415 25.11V29.11ZM103.264 32.3641C106.567 34.5018 108.995 37.5336 110.544 41.5454L114.276 40.1046C112.445 35.3631 109.499 31.6348 105.437 29.0059L103.264 32.3641ZM112.41 38.825H105.325V42.825H112.41V38.825ZM107.142 39.9887C105.733 36.9286 103.659 34.5141 100.917 32.8188L98.8134 36.2212C100.838 37.4725 102.404 39.2614 103.508 41.6613L107.142 39.9887ZM100.931 32.8275C98.215 31.1177 95.0126 30.31 91.415 30.31V34.31C94.4041 34.31 96.835 34.9756 98.7994 36.2125L100.931 32.8275ZM91.415 30.31C87.9276 30.31 84.7347 31.1262 81.8886 32.7946L83.9114 36.2454C86.092 34.9672 88.5757 34.31 91.415 34.31V30.31ZM81.8886 32.7946C79.0332 34.4685 76.8066 36.8553 75.2133 39.897L78.7567 41.753C80.0234 39.3347 81.7402 37.5182 83.9114 36.2454L81.8886 32.7946ZM75.2195 39.8853C73.6081 42.9129 72.84 46.4112 72.84 50.315H76.84C76.84 46.9388 77.5019 44.1105 78.7505 41.7647L75.2195 39.8853ZM72.84 50.315C72.84 54.1808 73.6101 57.6723 75.2133 60.733L78.7567 58.877C77.4999 56.4777 76.84 53.6425 76.84 50.315H72.84ZM75.2195 60.7447C76.8152 63.7427 79.0414 66.1014 81.8886 67.7704L83.9114 64.3196C81.7319 63.042 80.0148 61.2407 78.7505 58.8653L75.2195 60.7447ZM81.8886 67.7704C84.7347 69.4388 87.9276 70.255 91.415 70.255V66.255C88.5757 66.255 86.092 65.5978 83.9114 64.3196L81.8886 67.7704ZM91.415 70.255C95.002 70.255 98.196 69.4739 100.908 67.8166L98.8221 64.4034C96.854 65.6061 94.4147 66.255 91.415 66.255V70.255ZM100.917 67.8112C103.659 66.1159 105.733 63.7014 107.142 60.6413L103.508 58.9687C102.404 61.3686 100.838 63.1575 98.8134 64.4088L100.917 67.8112ZM105.325 61.805H112.41V57.805H105.325V61.805ZM110.547 59.0783C108.999 63.0455 106.572 66.0598 103.264 68.2009L105.437 71.5591C109.494 68.9336 112.441 65.2312 114.273 60.5317L110.547 59.0783ZM103.278 68.1919C99.9557 70.3022 96.0267 71.39 91.415 71.39V75.39C96.6833 75.39 101.378 74.1378 105.422 71.5681L103.278 68.1919ZM91.415 71.39C87.5349 71.39 84.0407 70.4938 80.8905 68.7218L78.9295 72.2082C82.7126 74.3362 86.8884 75.39 91.415 75.39V71.39ZM80.9164 68.7366C77.8045 66.9246 75.3464 64.4312 73.5241 61.2224L70.0459 63.1977C72.2103 67.0088 75.1689 70.0187 78.9036 72.1934L80.9164 68.7366ZM73.5241 61.2224C71.7177 58.0415 70.795 54.4225 70.795 50.315H66.795C66.795 55.0475 67.8656 59.3585 70.0459 63.1977L73.5241 61.2224ZM158.07 73L156.342 74.0066L156.92 75H158.07V73ZM147.28 54.475L149.008 53.4684L148.43 52.475H147.28V54.475ZM140.13 54.475V52.475H138.13V54.475H140.13ZM140.13 73V75H142.13V73H140.13ZM134.215 73H132.215V75H134.215V73ZM134.215 27.695V25.695H132.215V27.695H134.215ZM157.485 29.45L156.591 31.2389L156.597 31.2421L156.604 31.2453L157.485 29.45ZM161.84 49.275L160.25 48.0612L160.243 48.0704L160.236 48.0797L161.84 49.275ZM153.78 54.02L153.356 52.0654L150.631 52.6564L152.064 55.0481L153.78 54.02ZM165.155 73V75H168.685L166.87 71.9719L165.155 73ZM140.13 49.73H138.13V51.73H140.13V49.73ZM156.055 47.39L157.45 48.8234L157.459 48.8139L157.469 48.8042L156.055 47.39ZM156.055 34.78L154.682 36.234L154.692 36.2434L154.702 36.2527L156.055 34.78ZM140.13 32.57V30.57H138.13V32.57H140.13ZM159.798 71.9934L149.008 53.4684L145.552 55.4816L156.342 74.0066L159.798 71.9934ZM147.28 52.475H140.13V56.475H147.28V52.475ZM138.13 54.475V73H142.13V54.475H138.13ZM140.13 71H134.215V75H140.13V71ZM136.215 73V27.695H132.215V73H136.215ZM134.215 29.695H148.84V25.695H134.215V29.695ZM148.84 29.695C152.045 29.695 154.6 30.2438 156.591 31.2389L158.379 27.6611C155.69 26.3162 152.482 25.695 148.84 25.695V29.695ZM156.604 31.2453C158.689 32.269 160.147 33.6002 161.09 35.2074L164.54 33.1826C163.143 30.8031 161.048 28.971 158.366 27.6547L156.604 31.2453ZM161.09 35.2074C162.061 36.8619 162.57 38.7805 162.57 41.02H166.57C166.57 38.1462 165.909 35.5147 164.54 33.1826L161.09 35.2074ZM162.57 41.02C162.57 43.7204 161.793 46.0413 160.25 48.0612L163.429 50.4888C165.527 47.742 166.57 44.5596 166.57 41.02H162.57ZM160.236 48.0797C158.813 49.9898 156.597 51.3625 153.356 52.0654L154.204 55.9746C158.156 55.1175 161.314 53.3269 163.443 50.4703L160.236 48.0797ZM152.064 55.0481L163.439 74.0281L166.87 71.9719L155.495 52.9919L152.064 55.0481ZM165.155 71H158.07V75H165.155V71ZM140.13 51.73H148.84V47.73H140.13V51.73ZM148.84 51.73C152.341 51.73 155.337 50.8787 157.45 48.8234L154.66 45.9565C153.566 47.0213 151.752 47.73 148.84 47.73V51.73ZM157.469 48.8042C159.51 46.7636 160.46 44.0988 160.46 41.02H156.46C156.46 43.2279 155.807 44.8097 154.641 45.9758L157.469 48.8042ZM160.46 41.02C160.46 37.9143 159.517 35.2452 157.408 33.3073L154.702 36.2527C155.8 37.2615 156.46 38.7523 156.46 41.02H160.46ZM157.428 33.326C155.345 31.3585 152.344 30.57 148.84 30.57V34.57C151.836 34.57 153.645 35.2548 154.682 36.234L157.428 33.326ZM148.84 30.57H140.13V34.57H148.84V30.57ZM138.13 32.57V49.73H142.13V32.57H138.13ZM218.481 27.695L220.253 28.6219L221.784 25.695H218.481V27.695ZM203.726 55.905L201.954 54.9781L201.726 55.4135V55.905H203.726ZM203.726 73V75H205.726V73H203.726ZM197.811 73H195.811V75H197.811V73ZM197.811 55.905H199.811V55.4116L199.581 54.9749L197.811 55.905ZM182.991 27.695V25.695H179.681L181.22 28.6251L182.991 27.695ZM189.556 27.695L191.354 26.819L190.806 25.695H189.556V27.695ZM200.736 50.64L198.938 51.516L200.736 55.206L202.534 51.516L200.736 50.64ZM211.916 27.695V25.695H210.666L210.118 26.819L211.916 27.695ZM216.709 26.7681L201.954 54.9781L205.498 56.8319L220.253 28.6219L216.709 26.7681ZM201.726 55.905V73H205.726V55.905H201.726ZM203.726 71H197.811V75H203.726V71ZM199.811 73V55.905H195.811V73H199.811ZM199.581 54.9749L184.761 26.7649L181.22 28.6251L196.04 56.8351L199.581 54.9749ZM182.991 29.695H189.556V25.695H182.991V29.695ZM187.758 28.571L198.938 51.516L202.534 49.764L191.354 26.819L187.758 28.571ZM202.534 51.516L213.714 28.571L210.118 26.819L198.938 49.764L202.534 51.516ZM211.916 29.695H218.481V25.695H211.916V29.695ZM244.025 71.895L243.185 73.7099L243.205 73.7192L243.225 73.7281L244.025 71.895ZM238.5 67.475L236.865 68.6269L236.871 68.6358L236.877 68.6446L238.5 67.475ZM236.42 60.91V58.91H234.384L234.42 60.9451L236.42 60.91ZM242.725 60.91L244.715 60.707L244.531 58.91H242.725V60.91ZM245.325 66.305L243.931 67.7396L243.952 67.7597L243.973 67.7793L245.325 66.305ZM258.715 66.37L260.023 67.8827L260.026 67.8801L258.715 66.37ZM259.755 56.685L258.253 58.0063V58.0063L259.755 56.685ZM256.18 54.215L255.447 56.0758L256.18 54.215ZM250.395 52.395L250.912 50.4631L250.9 50.4598L250.395 52.395ZM243.18 50.055L242.376 51.8863L242.384 51.8898L242.392 51.8933L243.18 50.055ZM238.565 46.415L236.96 47.6084L236.977 47.6316L236.995 47.6543L238.565 46.415ZM238.565 33.09L240.235 34.1906L238.565 33.09ZM243.83 28.67L243.005 26.8481L242.998 26.8511L242.992 26.8541L243.83 28.67ZM262.095 30.295L260.855 31.8641L260.861 31.8689L260.867 31.8737L262.095 30.295ZM266.71 38.745V40.745H268.917L268.7 38.5484L266.71 38.745ZM260.21 38.745L258.225 38.9931L258.444 40.745H260.21V38.745ZM257.48 34.195L256.195 35.728L256.208 35.7384L256.22 35.7485L257.48 34.195ZM245.065 34.13L246.32 35.6875L246.332 35.6771L246.345 35.6664L245.065 34.13ZM244.09 43.49L242.585 44.807L242.6 44.8244L242.616 44.8414L244.09 43.49ZM247.535 45.895L246.761 47.7394L246.797 47.7542L246.833 47.7677L247.535 45.895ZM253.32 47.715L252.779 49.6406L252.789 49.6432L253.32 47.715ZM260.535 50.185L259.711 52.0072L259.729 52.0154L259.747 52.0233L260.535 50.185ZM265.215 53.89L263.63 55.1094L263.637 55.1194L263.645 55.1293L265.215 53.89ZM265.41 66.89L267.125 67.919L265.41 66.89ZM260.21 71.635L259.276 69.8666L260.21 71.635ZM252.085 71.455C249.329 71.455 246.921 70.9765 244.825 70.0619L243.225 73.7281C245.896 74.8935 248.861 75.455 252.085 75.455V71.455ZM244.865 70.0801C242.798 69.1231 241.241 67.8572 240.122 66.3054L236.877 68.6446C238.445 70.8195 240.572 72.5003 243.185 73.7099L244.865 70.0801ZM240.135 66.3231C239.036 64.7636 238.456 62.9695 238.42 60.8749L234.42 60.9451C234.47 63.7905 235.277 66.373 236.865 68.6269L240.135 66.3231ZM236.42 62.91H242.725V58.91H236.42V62.91ZM240.735 61.113C240.999 63.6994 242.074 65.9352 243.931 67.7396L246.718 64.8704C245.543 63.7281 244.884 62.3673 244.715 60.707L240.735 61.113ZM243.973 67.7793C246.026 69.6605 248.835 70.45 252.085 70.45V66.45C249.441 66.45 247.744 65.8095 246.676 64.8307L243.973 67.7793ZM252.085 70.45C255.222 70.45 257.951 69.6745 260.023 67.8827L257.407 64.8573C256.272 65.8388 254.581 66.45 252.085 66.45V70.45ZM260.026 67.8801C262.117 66.0644 263.185 63.6905 263.185 60.91H259.185C259.185 62.5495 258.606 63.8156 257.403 64.8599L260.026 67.8801ZM263.185 60.91C263.185 58.793 262.593 56.8826 261.256 55.3637L258.253 58.0063C258.824 58.6541 259.185 59.5603 259.185 60.91H263.185ZM261.256 55.3637C260.08 54.0267 258.618 53.0261 256.913 52.3542L255.447 56.0758C256.601 56.5306 257.523 57.1766 258.253 58.0063L261.256 55.3637ZM256.913 52.3542C255.383 51.7513 253.373 51.1221 250.912 50.4631L249.877 54.3269C252.27 54.9679 254.117 55.552 255.447 56.0758L256.913 52.3542ZM250.9 50.4598C247.959 49.6927 245.66 48.942 243.968 48.2167L242.392 51.8933C244.34 52.728 246.851 53.5373 249.89 54.3302L250.9 50.4598ZM243.984 48.2237C242.531 47.5859 241.249 46.5867 240.135 45.1757L236.995 47.6543C238.481 49.5366 240.275 50.9641 242.376 51.8863L243.984 48.2237ZM240.17 45.2216C239.244 43.9764 238.68 42.1855 238.68 39.655H234.68C234.68 42.7578 235.372 45.4736 236.96 47.6084L240.17 45.2216ZM238.68 39.655C238.68 37.5429 239.211 35.7438 240.235 34.1906L236.895 31.9894C235.405 34.2495 234.68 36.8271 234.68 39.655H238.68ZM240.235 34.1906C241.269 32.6222 242.723 31.3837 244.668 30.4859L242.992 26.8541C240.43 28.0362 238.374 29.7445 236.895 31.9894L240.235 34.1906ZM244.655 30.4919C246.652 29.5874 248.985 29.11 251.695 29.11V25.11C248.511 25.11 245.601 25.6725 243.005 26.8481L244.655 30.4919ZM251.695 29.11C255.602 29.11 258.599 30.0815 260.855 31.8641L263.335 28.7259C260.217 26.2618 256.281 25.11 251.695 25.11V29.11ZM260.867 31.8737C263.154 33.6529 264.426 35.9651 264.72 38.9416L268.7 38.5484C268.301 34.5049 266.495 31.1838 263.323 28.7163L260.867 31.8737ZM266.71 36.745H260.21V40.745H266.71V36.745ZM262.194 38.4969C261.902 36.1596 260.666 34.2036 258.739 32.6415L256.22 35.7485C257.5 36.7864 258.084 37.8637 258.225 38.9931L262.194 38.4969ZM258.764 32.662C256.714 30.9444 254.096 30.18 251.11 30.18V34.18C253.411 34.18 255.039 34.759 256.195 35.728L258.764 32.662ZM251.11 30.18C248.277 30.18 245.777 30.933 243.784 32.5936L246.345 35.6664C247.473 34.727 249.003 34.18 251.11 34.18V30.18ZM243.81 32.5725C241.706 34.2673 240.725 36.6579 240.725 39.46H244.725C244.725 37.6687 245.303 36.506 246.32 35.6875L243.81 32.5725ZM240.725 39.46C240.725 41.4935 241.297 43.3351 242.585 44.807L245.595 42.173C245.063 41.5649 244.725 40.7198 244.725 39.46H240.725ZM242.616 44.8414C243.771 46.1015 245.16 47.068 246.761 47.7394L248.308 44.0506C247.223 43.5953 246.316 42.9585 245.564 42.1385L242.616 44.8414ZM246.833 47.7677C248.297 48.3168 250.288 48.9412 252.779 49.6406L253.86 45.7894C251.412 45.1021 249.546 44.5132 248.237 44.0223L246.833 47.7677ZM252.789 49.6432C255.727 50.4522 258.022 51.2435 259.711 52.0072L261.359 48.3628C259.408 47.4799 256.893 46.6244 253.851 45.7868L252.789 49.6432ZM259.747 52.0233C261.229 52.6583 262.522 53.669 263.63 55.1094L266.8 52.6706C265.308 50.731 263.481 49.2717 261.323 48.3467L259.747 52.0233ZM263.645 55.1293C264.58 56.314 265.165 58.0778 265.165 60.65H269.165C269.165 57.5022 268.449 54.7593 266.785 52.6507L263.645 55.1293ZM265.165 60.65C265.165 62.4866 264.684 64.2124 263.695 65.861L267.125 67.919C268.476 65.6676 269.165 63.2334 269.165 60.65H265.165ZM263.695 65.861C262.738 67.4554 261.296 68.7991 259.276 69.8666L261.144 73.4034C263.717 72.0442 265.741 70.2246 267.125 67.919L263.695 65.861ZM259.276 69.8666C257.319 70.9001 254.944 71.455 252.085 71.455V75.455C255.465 75.455 258.507 74.7966 261.144 73.4034L259.276 69.8666ZM316.754 27.695H318.754V25.695H316.754V27.695ZM316.754 32.505V34.505H318.754V32.505H316.754ZM304.404 32.505V30.505H302.404V32.505H304.404ZM304.404 73V75H306.404V73H304.404ZM298.489 73H296.489V75H298.489V73ZM298.489 32.505H300.489V30.505H298.489V32.505ZM286.074 32.505H284.074V34.505H286.074V32.505ZM286.074 27.695V25.695H284.074V27.695H286.074ZM314.754 27.695V32.505H318.754V27.695H314.754ZM316.754 30.505H304.404V34.505H316.754V30.505ZM302.404 32.505V73H306.404V32.505H302.404ZM304.404 71H298.489V75H304.404V71ZM300.489 73V32.505H296.489V73H300.489ZM298.489 30.505H286.074V34.505H298.489V30.505ZM288.074 32.505V27.695H284.074V32.505H288.074ZM286.074 29.695H316.754V25.695H286.074V29.695ZM363.815 62.925L365.696 62.2454L365.219 60.925H363.815V62.925ZM344.055 62.925V60.925H342.651L342.174 62.2454L344.055 62.925ZM340.415 73V75H341.819L342.296 73.6796L340.415 73ZM334.175 73L332.296 72.3165L331.32 75H334.175V73ZM350.555 27.955V25.955H349.154L348.676 27.2715L350.555 27.955ZM357.38 27.955L359.261 27.2739L358.783 25.955H357.38V27.955ZM373.695 73V75H376.547L375.576 72.3189L373.695 73ZM367.455 73L365.574 73.6796L366.051 75H367.455V73ZM362.125 58.115V60.115H364.965L364.008 57.441L362.125 58.115ZM353.935 35.235L355.818 34.561L353.935 29.3005L352.052 34.561L353.935 35.235ZM345.745 58.115L343.862 57.441L342.905 60.115H345.745V58.115ZM363.815 60.925H344.055V64.925H363.815V60.925ZM342.174 62.2454L338.534 72.3204L342.296 73.6796L345.936 63.6046L342.174 62.2454ZM340.415 71H334.175V75H340.415V71ZM336.055 73.6835L352.435 28.6385L348.676 27.2715L332.296 72.3165L336.055 73.6835ZM350.555 29.955H357.38V25.955H350.555V29.955ZM355.5 28.6361L371.815 73.6811L375.576 72.3189L359.261 27.2739L355.5 28.6361ZM373.695 71H367.455V75H373.695V71ZM369.336 72.3204L365.696 62.2454L361.934 63.6046L365.574 73.6796L369.336 72.3204ZM364.008 57.441L355.818 34.561L352.052 35.909L360.242 58.789L364.008 57.441ZM352.052 34.561L343.862 57.441L347.628 58.789L355.818 35.909L352.052 34.561ZM345.745 60.115H362.125V56.115H345.745V60.115ZM399.749 68.19H397.749V70.19H399.749V68.19ZM415.609 68.19H417.609V66.19H415.609V68.19ZM415.609 73V75H417.609V73H415.609ZM393.834 73H391.834V75H393.834V73ZM393.834 27.695V25.695H391.834V27.695H393.834ZM399.749 27.695H401.749V25.695H399.749V27.695ZM399.749 70.19H415.609V66.19H399.749V70.19ZM413.609 68.19V73H417.609V68.19H413.609ZM415.609 71H393.834V75H415.609V71ZM395.834 73V27.695H391.834V73H395.834ZM393.834 29.695H399.749V25.695H393.834V29.695ZM397.749 27.695V68.19H401.749V27.695H397.749ZM435.801 27.695V25.695H434.254L433.865 27.1919L435.801 27.695ZM442.366 27.695L444.208 28.474L445.383 25.695H442.366V27.695ZM436.126 42.45V44.45H437.451L437.968 43.229L436.126 42.45ZM431.966 42.45L430.03 41.9469L429.379 44.45H431.966V42.45ZM435.801 29.695H442.366V25.695H435.801V29.695ZM440.524 26.916L434.284 41.671L437.968 43.229L444.208 28.474L440.524 26.916ZM436.126 40.45H431.966V44.45H436.126V40.45ZM433.901 42.9531L437.736 28.1981L433.865 27.1919L430.03 41.9469L433.901 42.9531ZM499.549 27.695L501.421 28.4011L502.442 25.695H499.549V27.695ZM482.454 73V75H483.837L484.326 73.7061L482.454 73ZM475.629 73L473.758 73.7061L474.247 75H475.629V73ZM458.534 27.695V25.695H455.642L456.663 28.4011L458.534 27.695ZM464.839 27.695L466.719 27.0103L466.239 25.695H464.839V27.695ZM479.074 66.76L477.195 67.4447L479.074 72.6016L480.954 67.4447L479.074 66.76ZM493.31 27.695V25.695H491.91L491.43 27.0103L493.31 27.695ZM497.678 26.9889L480.583 72.2939L484.326 73.7061L501.421 28.4011L497.678 26.9889ZM482.454 71H475.629V75H482.454V71ZM477.501 72.2939L460.406 26.9889L456.663 28.4011L473.758 73.7061L477.501 72.2939ZM458.534 29.695H464.839V25.695H458.534V29.695ZM462.96 28.3797L477.195 67.4447L480.954 66.0753L466.719 27.0103L462.96 28.3797ZM480.954 67.4447L495.189 28.3797L491.43 27.0103L477.195 66.0753L480.954 67.4447ZM493.31 29.695H499.549V25.695H493.31V29.695ZM524.95 27.695H526.95V25.695H524.95V27.695ZM524.95 73V75H526.95V73H524.95ZM519.035 73H517.035V75H519.035V73ZM519.035 27.695V25.695H517.035V27.695H519.035ZM522.95 27.695V73H526.95V27.695H522.95ZM524.95 71H519.035V75H524.95V71ZM521.035 73V27.695H517.035V73H521.035ZM519.035 29.695H524.95V25.695H519.035V29.695ZM553.036 67.865L551.336 66.8123L549.446 69.865H553.036V67.865ZM575.136 67.865H577.136V65.865H575.136V67.865ZM575.136 73V75H577.136V73H575.136ZM546.016 73H544.016V75H546.016V73ZM546.016 68.32L544.316 67.2673L544.016 67.7511V68.32H546.016ZM567.986 32.83L569.687 33.8827L571.577 30.83H567.986V32.83ZM546.276 32.83H544.276V34.83H546.276V32.83ZM546.276 27.695V25.695H544.276V27.695H546.276ZM575.006 27.695H577.006V25.695H575.006V27.695ZM575.006 32.375L576.707 33.4277L577.006 32.944V32.375H575.006ZM553.036 69.865H575.136V65.865H553.036V69.865ZM573.136 67.865V73H577.136V67.865H573.136ZM575.136 71H546.016V75H575.136V71ZM548.016 73V68.32H544.016V73H548.016ZM547.717 69.3727L569.687 33.8827L566.286 31.7773L544.316 67.2673L547.717 69.3727ZM567.986 30.83H546.276V34.83H567.986V30.83ZM548.276 32.83V27.695H544.276V32.83H548.276ZM546.276 29.695H575.006V25.695H546.276V29.695ZM573.006 27.695V32.375H577.006V27.695H573.006ZM573.306 31.3223L551.336 66.8123L554.737 68.9177L576.707 33.4277L573.306 31.3223Z" fill="#263C5F" mask="url(#path-1-outside-1_344_3)"/>
<path d="M27.0718 102.321H2V102.688L31.1239 176.485H2V196.542H39.0396L46.2183 214.733H71.4347L27.0718 102.321Z" fill="#263C5F"/>
<path d="M144.295 102.321V172.048L115.021 130.351V173.036L144.295 214.733H169.512V102.321L144.295 102.321Z" fill="#263C5F"/>
<path d="M256.889 102.321V172.048L228.048 130.966V173.651L256.889 214.733H282.107V102.321L256.889 102.321Z" fill="#263C5F"/>
<path d="M392.884 102.321H341.228V123.474H392.884V102.321Z" fill="#263C5F"/>
<path d="M503.592 181.952C497.391 188.2 488.796 192.073 479.293 192.073C468.676 192.073 459.195 187.237 452.921 179.655V209.707C460.838 213.737 469.798 216.017 479.293 216.017C495.416 216.017 510.007 209.466 520.544 198.884L503.592 181.952Z" fill="#263C5F"/>
<path d="M611.732 101.855L586.799 137.369L564.568 105.702V148.387L574.051 161.896V214.734H599.269V162.292L641.698 101.855L611.732 101.855Z" fill="#263C5F"/>
<path d="M479.318 99.7847C469.823 99.7847 460.863 102.065 452.946 106.095V136.147C459.22 128.567 468.702 123.731 479.318 123.731C488.66 123.731 497.123 127.474 503.299 133.538L520.252 116.604C509.739 106.209 495.281 99.7847 479.318 99.7847Z" fill="#263C5F"/>
<path d="M392.884 193.124H341.228V214.277H392.884V193.124Z" fill="#263C5F"/>
<path d="M382.609 148.265H341.912V168.322H382.609V148.265Z" fill="#263C5F"/>
<path d="M31.2333 272.046H10.8164V293.519H2V242.848H34.2298V249.947H10.8164V265.017H31.2333V272.046Z" fill="#263C5F"/>
<path d="M123.439 270.898H102.604V286.488H126.957V293.519H93.7886V242.848H126.714V249.947H102.604V263.936H123.439V270.898Z" fill="#263C5F"/>
<path d="M192.469 280.466C192.469 279.445 192.317 278.536 192.014 277.734C191.712 276.934 191.162 276.198 190.36 275.525C189.557 274.852 188.454 274.207 187.05 273.592C185.645 272.978 183.837 272.335 181.632 271.662C179.216 270.942 176.986 270.118 174.942 269.191C172.898 268.263 171.139 267.184 169.664 265.955C168.188 264.725 167.032 263.31 166.197 261.708C165.361 260.106 164.942 258.275 164.942 256.209C164.942 254.167 165.379 252.289 166.249 250.572C167.12 248.855 168.345 247.372 169.925 246.116C171.505 244.864 173.398 243.891 175.603 243.195C177.811 242.498 180.249 242.149 182.922 242.149C185.778 242.149 188.344 242.562 190.621 243.386C192.896 244.209 194.819 245.33 196.387 246.742C197.955 248.16 199.156 249.801 199.993 251.668C200.83 253.537 201.246 255.527 201.246 257.637H192.469C192.469 256.406 192.275 255.276 191.892 254.243C191.51 253.21 190.922 252.319 190.134 251.565C189.343 250.811 188.344 250.223 187.137 249.808C185.929 249.39 184.499 249.179 182.851 249.179C181.295 249.179 179.946 249.353 178.809 249.702C177.672 250.05 176.725 250.538 175.969 251.165C175.214 251.789 174.657 252.534 174.298 253.39C173.937 254.249 173.758 255.177 173.758 256.176C173.758 258.054 174.646 259.621 176.421 260.874C178.198 262.126 180.91 263.286 184.559 264.353C187.416 265.189 189.888 266.116 191.98 267.137C194.07 268.16 195.806 269.312 197.189 270.599C198.571 271.889 199.597 273.338 200.272 274.952C200.946 276.564 201.282 278.379 201.282 280.396C201.282 282.532 200.858 284.45 200.011 286.156C199.162 287.861 197.956 289.312 196.387 290.506C194.819 291.702 192.921 292.617 190.691 293.256C188.46 293.895 185.976 294.214 183.234 294.214C180.795 294.214 178.39 293.884 176.022 293.22C173.653 292.56 171.527 291.563 169.646 290.23C167.766 288.894 166.249 287.23 165.1 285.235C163.95 283.238 163.374 280.896 163.374 278.206H172.191C172.191 279.806 172.473 281.181 173.043 282.329C173.613 283.477 174.39 284.416 175.379 285.147C176.364 285.879 177.532 286.413 178.879 286.749C180.225 287.085 181.678 287.254 183.234 287.254C186.3 287.254 188.605 286.632 190.152 285.392C191.695 284.15 192.469 282.508 192.469 280.466Z" fill="#263C5F"/>
<path d="M287.344 249.947H271.526V293.519H262.782V249.947H247.102V242.848H287.344V249.947Z" fill="#263C5F"/>
<path d="M346.477 293.519H337.696V242.848H346.477V293.519Z" fill="#263C5F"/>
<path d="M417.62 282.488L430.51 242.848H440.197L421.939 293.519H413.402L395.216 242.848H404.866L417.62 282.488Z" fill="#263C5F"/>
<path fill-rule="evenodd" clip-rule="evenodd" d="M502.645 281.722H482.995L478.884 293.519H469.719L488.883 242.848H496.791L515.989 293.519H506.791L502.645 281.722ZM485.47 274.621H500.172L492.82 253.602L485.47 274.621Z" fill="#263C5F"/>
<path d="M583.144 286.488H606.173V293.519H574.328V242.848H583.144V286.488Z" fill="#263C5F"/>
</svg>
