<svg width="641" height="353" viewBox="0 0 641 353" fill="none" xmlns="http://www.w3.org/2000/svg">
<g clip-path="url(#clip0_101_78)">
<path d="M6.39191 29.9038L7.26148 30.3976L7.26405 30.3931L6.39191 29.9038ZM22.3919 13.5198L21.8934 12.6529L21.8887 12.6556L22.3919 13.5198ZM86.3919 34.6398V35.6398H87.85L87.3248 34.2796L86.3919 34.6398ZM72.4399 34.6398L71.5315 35.0579L71.7994 35.6398H72.4399V34.6398ZM61.6879 22.2238L61.1551 23.0701L61.1621 23.0744L61.6879 22.2238ZM16.6319 34.6398L17.5147 35.1097L17.5177 35.1038L16.6319 34.6398ZM16.6319 72.0158L15.7461 72.4798L15.7492 72.4856L16.6319 72.0158ZM61.6879 84.4318L62.2094 85.2851L62.2137 85.2824L61.6879 84.4318ZM72.4399 72.0158V71.0158H71.7994L71.5315 71.5977L72.4399 72.0158ZM86.3919 72.0158L87.3236 72.3791L87.8553 71.0158H86.3919V72.0158ZM70.5199 91.8558L71.0562 92.6999L71.0632 92.6954L70.5199 91.8558ZM22.3919 93.0078L21.8887 93.872L21.8951 93.8757L21.9016 93.8794L22.3919 93.0078ZM1.50391 53.3278C1.50391 44.78 3.42961 37.145 7.26148 30.3976L5.52235 29.41C1.50355 36.4866 -0.496094 44.4676 -0.496094 53.3278H1.50391ZM7.26405 30.3931C11.1047 23.5467 16.3125 18.2169 22.8951 14.384L21.8887 12.6556C14.9886 16.6734 9.52982 22.2662 5.51977 29.4145L7.26405 30.3931ZM22.8904 14.3867C29.5575 10.5531 36.9362 8.6318 45.0479 8.6318V6.6318C36.6049 6.6318 28.8796 8.63583 21.8934 12.6529L22.8904 14.3867ZM45.0479 8.6318C54.6082 8.6318 62.905 10.9356 69.9767 15.5114L71.0632 13.8322C63.6282 9.02135 54.9436 6.6318 45.0479 6.6318V8.6318ZM69.9767 15.5114C77.0402 20.0819 82.2015 26.5638 85.459 35L87.3248 34.2796C83.9263 25.4785 78.5063 18.6484 71.0632 13.8322L69.9767 15.5114ZM86.3919 33.6398H72.4399V35.6398H86.3919V33.6398ZM73.3483 34.2217C70.7976 28.6806 67.0866 24.3855 62.2137 21.3732L61.1621 23.0744C65.6759 25.8647 69.1328 29.847 71.5315 35.0579L73.3483 34.2217ZM62.2207 21.3776C57.4249 18.358 51.6854 16.8718 45.0479 16.8718V18.8718C51.3811 18.8718 56.7349 20.287 61.1551 23.0701L62.2207 21.3776ZM45.0479 16.8718C38.6565 16.8718 32.8899 18.3622 27.7742 21.3611L28.7856 23.0865C33.5685 20.2827 38.9806 18.8718 45.0479 18.8718V16.8718ZM27.7742 21.3611C22.6538 24.3627 18.6437 28.644 15.7461 34.1758L17.5177 35.1038C20.2521 29.8836 24.0073 25.8876 28.7856 23.0865L27.7742 21.3611ZM15.7492 34.1699C12.8424 39.6311 11.4079 46.0279 11.4079 53.3278H13.4079C13.4079 46.2917 14.7895 40.23 17.5147 35.1097L15.7492 34.1699ZM11.4079 53.3278C11.4079 60.545 12.8435 66.9385 15.7461 72.4798L17.5177 71.5518C14.7883 66.3411 13.4079 60.2759 13.4079 53.3278H11.4079ZM15.7492 72.4856C18.648 77.932 22.6579 82.1673 27.7742 85.1665L28.7856 83.4411C24.0032 80.6376 20.2478 76.681 17.5146 71.5459L15.7492 72.4856ZM27.7742 85.1665C32.8899 88.1654 38.6565 89.6558 45.0479 89.6558V87.6558C38.9806 87.6558 33.5685 86.2449 28.7856 83.4411L27.7742 85.1665ZM45.0479 89.6558C51.6801 89.6558 57.4154 88.2147 62.2094 85.2851L61.1665 83.5785C56.7444 86.2809 51.3864 87.6558 45.0479 87.6558V89.6558ZM62.2137 85.2824C67.0866 82.2701 70.7976 77.975 73.3483 72.4339L71.5315 71.5977C69.1328 76.8086 65.6759 80.7909 61.1621 83.5812L62.2137 85.2824ZM72.4399 73.0158H86.3919V71.0158H72.4399V73.0158ZM85.4603 71.6525C82.2037 80.0027 77.0428 86.444 69.9767 91.0162L71.0632 92.6954C78.5037 87.8809 83.9242 81.0956 87.3236 72.3791L85.4603 71.6525ZM69.9837 91.0117C62.9111 95.5049 54.6118 97.7678 45.0479 97.7678V99.7678C54.94 99.7678 63.6221 97.4227 71.0562 92.6999L69.9837 91.0117ZM45.0479 97.7678C36.9322 97.7678 29.5506 95.8872 22.8822 92.1362L21.9016 93.8794C28.8866 97.8084 36.6089 99.7678 45.0479 99.7678V97.7678ZM22.8951 92.1436C16.3095 88.309 11.1013 83.0194 7.26147 76.258L5.52235 77.2456C9.5332 84.3082 14.9917 89.856 21.8887 93.872L22.8951 92.1436ZM7.26147 76.258C3.4296 69.5106 1.50391 61.8756 1.50391 53.3278H-0.496094C-0.496094 62.188 1.50355 70.169 5.52235 77.2456L7.26147 76.258ZM115.379 39.2478H114.379L116.27 39.7026L115.379 39.2478ZM124.083 29.9038L123.583 29.0379L123.574 29.0429L124.083 29.9038ZM138.035 26.5758H139.035V25.5758H138.035V26.5758ZM138.035 38.6078V39.6078H139.035V38.6078H138.035ZM115.379 97.9998V98.9998H116.379V97.9998H115.379ZM103.731 97.9998H102.731V98.9998H103.731V97.9998ZM103.731 27.8558V26.8558H102.731V27.8558H103.731ZM115.379 27.8558H116.379V26.8558H115.379V27.8558ZM116.27 39.7026C118.234 35.855 121.006 32.8837 124.592 30.7647L123.574 29.0429C119.651 31.3612 116.62 34.6193 114.488 38.793L116.27 39.7026ZM124.583 30.7697C128.24 28.6571 132.709 27.5758 138.035 27.5758V25.5758C132.438 25.5758 127.606 26.7132 123.583 29.0379L124.583 30.7697ZM137.035 26.5758V38.6078H139.035V26.5758H137.035ZM138.035 37.6078H134.963V39.6078H138.035V37.6078ZM134.963 37.6078C128.259 37.6078 123.053 39.43 119.54 43.2421C116.04 47.0387 114.379 52.6383 114.379 59.8558H116.379C116.379 52.908 117.982 47.8835 121.01 44.5975C124.025 41.3269 128.611 39.6078 134.963 39.6078V37.6078ZM114.379 59.8558V97.9998H116.379V59.8558H114.379ZM115.379 96.9998H103.731V98.9998H115.379V96.9998ZM104.731 97.9998V27.8558H102.731V97.9998H104.731ZM103.731 28.8558H115.379V26.8558H103.731V28.8558ZM114.379 27.8558V39.2478H116.379V27.8558H114.379ZM211.897 27.8558L212.822 28.2347L213.387 26.8558H211.897V27.8558ZM169.657 131.024V132.024H170.328L170.582 131.403L169.657 131.024ZM157.625 131.024L156.699 130.645L156.135 132.024H157.625V131.024ZM171.449 97.2318L172.375 97.6104L172.529 97.2324L172.375 96.8542L171.449 97.2318ZM143.161 27.8558V26.8558H141.673L142.235 28.2334L143.161 27.8558ZM156.089 27.8558L157.021 27.4946L156.774 26.8558H156.089V27.8558ZM178.105 84.6878L177.173 85.049L178.11 87.4702L179.039 85.0454L178.105 84.6878ZM199.865 27.8558V26.8558H199.177L198.931 27.4982L199.865 27.8558ZM210.972 27.4769L168.732 130.645L170.582 131.403L212.822 28.2347L210.972 27.4769ZM169.657 130.024H157.625V132.024H169.657V130.024ZM158.551 131.403L172.375 97.6104L170.523 96.8532L156.699 130.645L158.551 131.403ZM172.375 96.8542L144.087 27.4782L142.235 28.2334L170.523 97.6094L172.375 96.8542ZM143.161 28.8558H156.089V26.8558H143.161V28.8558ZM155.157 28.217L177.173 85.049L179.037 84.3266L157.021 27.4946L155.157 28.217ZM179.039 85.0454L200.799 28.2134L198.931 27.4982L177.171 84.3302L179.039 85.0454ZM199.865 28.8558H211.897V26.8558H199.865V28.8558ZM233.974 96.4638L233.571 97.3791L233.579 97.3825L233.587 97.3858L233.974 96.4638ZM223.862 88.7838L223.059 89.3805L223.067 89.3905L223.862 88.7838ZM219.766 77.3918V76.3918H218.704L218.768 77.4517L219.766 77.3918ZM231.798 77.3918L232.793 77.2947L232.705 76.3918H231.798V77.3918ZM236.662 85.9678L236.054 86.7622L236.066 86.7705L236.662 85.9678ZM258.55 72.1438L258.06 73.0154L258.07 73.0213L258.081 73.0269L258.55 72.1438ZM245.878 67.6638L245.624 68.6311L245.632 68.6331L245.878 67.6638ZM233.078 63.5678L232.67 64.4806L232.684 64.487L232.698 64.493L233.078 63.5678ZM224.63 57.2958L223.856 57.929L223.867 57.9418L223.877 57.9543L224.63 57.2958ZM233.462 29.3918L233.861 30.3089L233.869 30.3053L233.877 30.3015L233.462 29.3918ZM273.398 48.7198V49.7198H274.449L274.397 48.6699L273.398 48.7198ZM261.75 48.7198L260.752 48.7894L260.817 49.7198H261.75V48.7198ZM257.27 39.8878L256.627 40.654L256.633 40.659L256.639 40.6639L257.27 39.8878ZM234.998 52.0478L234.271 52.7344L234.291 52.7552L234.311 52.7748L234.998 52.0478ZM240.63 55.6318L240.24 56.5528L240.261 56.5616L240.283 56.5695L240.63 55.6318ZM250.102 58.5758L249.835 59.5396L249.84 59.5409L250.102 58.5758ZM262.39 62.6718L261.993 63.5897L262.004 63.5942L262.014 63.5985L262.39 62.6718ZM270.454 68.5598L269.688 69.2024L269.694 69.2096L269.7 69.2166L270.454 68.5598ZM274.038 78.9278H275.038V78.9178V78.9078L274.038 78.9278ZM261.75 96.5918L262.156 97.5057L262.165 97.5015L261.75 96.5918ZM248.438 98.1518C243.174 98.1518 238.487 97.2747 234.361 95.5418L233.587 97.3858C237.994 99.2369 242.95 100.152 248.438 100.152V98.1518ZM234.377 95.5485C230.242 93.7294 227.015 91.2673 224.657 88.1771L223.067 89.3905C225.658 92.7857 229.172 95.4435 233.571 97.3791L234.377 95.5485ZM224.664 88.1871C222.31 85.0202 221.009 81.4107 220.764 77.3319L218.768 77.4517C219.035 81.9062 220.464 85.8914 223.059 89.3805L224.664 88.1871ZM219.766 78.3918H231.798V76.3918H219.766V78.3918ZM230.803 77.4889C231.172 81.2757 232.942 84.3824 236.054 86.7622L237.269 85.1734C234.579 83.1159 233.107 80.5053 232.793 77.2947L230.803 77.4889ZM236.066 86.7705C239.268 89.1496 243.378 90.2958 248.31 90.2958V88.2958C243.685 88.2958 240.029 87.2233 237.258 85.1651L236.066 86.7705ZM248.31 90.2958C252.886 90.2958 256.625 89.2842 259.414 87.1454L258.198 85.5582C255.867 87.3448 252.609 88.2958 248.31 88.2958V90.2958ZM259.414 87.1454C262.198 85.011 263.646 82.2532 263.646 78.9278H261.646C261.646 81.5757 260.534 83.7673 258.198 85.5582L259.414 87.1454ZM263.646 78.9278C263.646 77.2397 263.269 75.7215 262.478 74.4109C261.687 73.1007 260.517 72.0562 259.019 71.2607L258.081 73.0269C259.314 73.682 260.192 74.4935 260.766 75.4447C261.34 76.3955 261.646 77.5439 261.646 78.9278H263.646ZM259.04 71.2722C256.192 69.6704 251.866 68.1514 246.124 66.6945L245.632 68.6331C251.325 70.0776 255.446 71.5452 258.06 73.0154L259.04 71.2722ZM246.132 66.6965C240.95 65.3375 236.73 63.9851 233.458 62.6426L232.698 64.493C236.082 65.8811 240.395 67.2594 245.624 68.6311L246.132 66.6965ZM233.486 62.655C230.378 61.2645 227.679 59.2617 225.383 56.6373L223.877 57.9543C226.36 60.7912 229.292 62.9697 232.67 64.4806L233.486 62.655ZM225.404 56.6626C223.279 54.0653 222.174 50.6373 222.174 46.2878H220.174C220.174 50.9836 221.373 54.8943 223.856 57.929L225.404 56.6626ZM222.174 46.2878C222.174 42.9175 223.172 39.8345 225.188 37.013L223.56 35.8506C221.309 39.0025 220.174 42.4901 220.174 46.2878H222.174ZM225.188 37.013C227.199 34.1969 230.074 31.9554 233.861 30.3089L233.063 28.4747C229 30.2415 225.815 32.6934 223.56 35.8506L225.188 37.013ZM233.877 30.3015C237.652 28.5781 241.987 27.7038 246.902 27.7038V25.7038C241.748 25.7038 237.122 26.6215 233.047 28.4821L233.877 30.3015ZM246.902 27.7038C254.497 27.7038 260.525 29.6205 265.083 33.3645L266.353 31.8191C261.353 27.7124 254.838 25.7038 246.902 25.7038V27.7038ZM265.083 33.3645C269.62 37.091 272.07 42.1915 272.399 48.7697L274.397 48.6699C274.043 41.5948 271.373 35.9432 266.353 31.8191L265.083 33.3645ZM273.398 47.7198H261.75V49.7198H273.398V47.7198ZM262.748 48.6502C262.473 44.7188 260.857 41.5136 257.901 39.1117L256.639 40.6639C259.144 42.6993 260.515 45.3821 260.752 48.7894L262.748 48.6502ZM257.913 39.1216C255.038 36.7104 251.202 35.5598 246.518 35.5598V37.5598C250.879 37.5598 254.212 38.6278 256.627 40.654L257.913 39.1216ZM246.518 35.5598C242.202 35.5598 238.645 36.4841 235.947 38.4379L237.121 40.0577C239.372 38.4275 242.471 37.5598 246.518 37.5598V35.5598ZM235.947 38.4379C233.229 40.4062 231.822 43.0463 231.822 46.2878H233.822C233.822 43.7266 234.889 41.6734 237.121 40.0577L235.947 38.4379ZM231.822 46.2878C231.822 48.8219 232.628 50.9952 234.271 52.7344L235.725 51.3612C234.466 50.0284 233.822 48.3617 233.822 46.2878H231.822ZM234.311 52.7748C235.945 54.3179 237.927 55.5741 240.24 56.5528L241.02 54.7108C238.896 53.8122 237.123 52.679 235.685 51.3208L234.311 52.7748ZM240.283 56.5695C242.625 57.4371 245.813 58.4271 249.835 59.5396L250.369 57.612C246.369 56.5058 243.243 55.5331 240.977 54.694L240.283 56.5695ZM249.84 59.5409C254.85 60.8994 258.896 62.2503 261.993 63.5897L262.787 61.7539C259.569 60.3626 255.424 58.9828 250.364 57.6107L249.84 59.5409ZM262.014 63.5985C265.018 64.8163 267.573 66.6805 269.688 69.2024L271.22 67.9172C268.898 65.1484 266.077 63.0873 262.766 61.7451L262.014 63.5985ZM269.7 69.2166C271.818 71.649 272.957 74.8629 273.038 78.9478L275.038 78.9078C274.949 74.4593 273.698 70.7613 271.208 67.903L269.7 69.2166ZM273.038 78.9278C273.038 82.5697 272.03 85.8256 270.017 88.7254L271.659 89.8662C273.912 86.622 275.038 82.9659 275.038 78.9278H273.038ZM270.017 88.7254C268.001 91.6285 265.122 93.9531 261.335 95.6821L262.165 97.5015C266.228 95.6465 269.409 93.1071 271.659 89.8662L270.017 88.7254ZM261.344 95.678C257.654 97.3177 253.36 98.1518 248.438 98.1518V100.152C253.585 100.152 258.166 99.2793 262.156 97.5057L261.344 95.678ZM304.689 37.4558V36.4558H303.689V37.4558H304.689ZM306.865 86.0958L306.158 86.8029L306.169 86.8136L306.18 86.824L306.865 86.0958ZM322.993 88.1438H323.993V87.1438H322.993V88.1438ZM322.993 97.9998V98.9998H323.993V97.9998H322.993ZM293.041 37.4558H294.041V36.4558H293.041V37.4558ZM283.953 37.4558H282.953V38.4558H283.953V37.4558ZM283.953 27.8558V26.8558H282.953V27.8558H283.953ZM293.041 27.8558V28.8558H294.041V27.8558H293.041ZM293.041 10.1918V9.19179H292.041V10.1918H293.041ZM304.689 10.1918H305.689V9.19179H304.689V10.1918ZM304.689 27.8558H303.689V28.8558H304.689V27.8558ZM322.993 27.8558H323.993V26.8558H322.993V27.8558ZM322.993 37.4558V38.4558H323.993V37.4558H322.993ZM303.689 37.4558V78.7998H305.689V37.4558H303.689ZM303.689 78.7998C303.689 82.3118 304.428 85.0729 306.158 86.8029L307.572 85.3887C306.401 84.2173 305.689 82.1145 305.689 78.7998H303.689ZM306.18 86.824C307.917 88.4588 310.763 89.1438 314.417 89.1438V87.1438C310.903 87.1438 308.715 86.4635 307.55 85.3676L306.18 86.824ZM314.417 89.1438H322.993V87.1438H314.417V89.1438ZM321.993 88.1438V97.9998H323.993V88.1438H321.993ZM322.993 96.9998H312.497V98.9998H322.993V96.9998ZM312.497 96.9998C306.146 96.9998 301.57 95.5358 298.582 92.7843L297.228 94.2553C300.726 97.4772 305.877 98.9998 312.497 98.9998V96.9998ZM298.582 92.7843C295.635 90.0696 294.041 85.4985 294.041 78.7998H292.041C292.041 85.7545 293.689 90.9966 297.228 94.2553L298.582 92.7843ZM294.041 78.7998V37.4558H292.041V78.7998H294.041ZM293.041 36.4558H283.953V38.4558H293.041V36.4558ZM284.953 37.4558V27.8558H282.953V37.4558H284.953ZM283.953 28.8558H293.041V26.8558H283.953V28.8558ZM294.041 27.8558V10.1918H292.041V27.8558H294.041ZM293.041 11.1918H304.689V9.19179H293.041V11.1918ZM303.689 10.1918V27.8558H305.689V10.1918H303.689ZM304.689 28.8558H322.993V26.8558H304.689V28.8558ZM321.993 27.8558V37.4558H323.993V27.8558H321.993ZM322.993 36.4558H304.689V38.4558H322.993V36.4558ZM337.106 43.8558L337.986 44.3307L337.989 44.325L337.106 43.8558ZM349.01 31.1838L348.506 30.32L348.5 30.3237L349.01 31.1838ZM392.146 40.6558L391.271 41.1399L393.146 40.6558H392.146ZM392.146 27.8558V26.8558H391.146V27.8558H392.146ZM403.922 27.8558H404.922V26.8558H403.922V27.8558ZM403.922 97.9998V98.9998H404.922V97.9998H403.922ZM392.146 97.9998H391.146V98.9998H392.146V97.9998ZM392.146 84.9438H393.146V81.1263L391.274 84.4535L392.146 84.9438ZM381.778 95.1838L382.283 96.047L382.288 96.0441L381.778 95.1838ZM380.242 40.0158L379.731 40.8751L379.742 40.8822L379.755 40.889L380.242 40.0158ZM347.858 76.7518L346.975 77.2214L346.979 77.2293L347.858 76.7518ZM356.434 85.8398L355.923 86.6991L355.93 86.7036L355.938 86.708L356.434 85.8398ZM380.242 85.8398L380.738 86.7081L380.745 86.7043L380.242 85.8398ZM388.946 76.7518L389.825 77.2293L389.829 77.2214L388.946 76.7518ZM333.754 62.6718C333.754 55.6408 335.176 49.5374 337.986 44.3307L336.226 43.3809C333.233 48.9262 331.754 55.3668 331.754 62.6718H333.754ZM337.989 44.325C340.809 39.0161 344.652 34.9315 349.52 32.0439L348.5 30.3237C343.298 33.4094 339.205 37.7728 336.223 43.3866L337.989 44.325ZM349.514 32.0476C354.473 29.1547 359.972 27.7038 366.034 27.7038V25.7038C359.637 25.7038 353.787 27.2395 348.506 30.32L349.514 32.0476ZM366.034 27.7038C372.031 27.7038 377.184 28.9937 381.529 31.535L382.539 29.8086C377.838 27.0593 372.325 25.7038 366.034 25.7038V27.7038ZM381.529 31.535C385.919 34.1028 389.151 37.308 391.271 41.1399L393.021 40.1717C390.703 35.9823 387.194 32.5315 382.539 29.8086L381.529 31.535ZM393.146 40.6558V27.8558H391.146V40.6558H393.146ZM392.146 28.8558H403.922V26.8558H392.146V28.8558ZM402.922 27.8558V97.9998H404.922V27.8558H402.922ZM403.922 96.9998H392.146V98.9998H403.922V96.9998ZM393.146 97.9998V84.9438H391.146V97.9998H393.146ZM391.274 84.4535C389.068 88.3762 385.747 91.6696 381.268 94.3235L382.288 96.0441C387.025 93.2367 390.616 89.7034 393.018 85.4341L391.274 84.4535ZM381.273 94.3206C376.926 96.8631 371.815 98.1518 365.906 98.1518V100.152C372.114 100.152 377.584 98.7951 382.283 96.047L381.273 94.3206ZM365.906 98.1518C359.85 98.1518 354.4 96.661 349.531 93.6902L348.489 95.3974C353.69 98.5706 359.504 100.152 365.906 100.152V98.1518ZM349.531 93.6902C344.661 90.7185 340.815 86.5485 337.992 81.1523L336.22 82.0793C339.2 87.7765 343.29 92.2251 348.489 95.3974L349.531 93.6902ZM337.992 81.1523C335.175 75.7665 333.754 69.6145 333.754 62.6718H331.754C331.754 69.8944 333.234 76.3717 336.22 82.0793L337.992 81.1523ZM393.146 62.7998C393.146 57.3731 392.051 52.595 389.825 48.4983L388.067 49.4533C390.108 53.2073 391.146 57.6452 391.146 62.7998H393.146ZM389.825 48.4983C387.607 44.4177 384.575 41.2887 380.729 39.1426L379.755 40.889C383.248 42.8389 386.018 45.6833 388.067 49.4533L389.825 48.4983ZM380.753 39.1565C377.008 36.927 372.862 35.8158 368.338 35.8158V37.8158C372.518 37.8158 376.308 38.8379 379.731 40.8751L380.753 39.1565ZM368.338 35.8158C363.822 35.8158 359.681 36.8805 355.938 39.0196L356.93 40.756C360.355 38.7991 364.15 37.8158 368.338 37.8158V35.8158ZM355.938 39.0196C352.179 41.1673 349.194 44.2957 346.979 48.3703L348.737 49.3253C350.789 45.5493 353.521 42.7043 356.93 40.756L355.938 39.0196ZM346.979 48.3703C344.753 52.467 343.658 57.2451 343.658 62.6718H345.658C345.658 57.5172 346.696 53.0793 348.737 49.3253L346.979 48.3703ZM343.658 62.6718C343.658 68.1816 344.752 73.0418 346.975 77.2214L348.741 76.2822C346.697 72.4405 345.658 67.914 345.658 62.6718H343.658ZM346.979 77.2293C349.192 81.3009 352.173 84.4673 355.923 86.6991L356.945 84.9805C353.527 82.9457 350.79 80.0533 348.737 76.2743L346.979 77.2293ZM355.938 86.708C359.681 88.8471 363.822 89.9118 368.338 89.9118V87.9118C364.15 87.9118 360.355 86.9285 356.93 84.9716L355.938 86.708ZM368.338 89.9118C372.854 89.9118 376.995 88.8472 380.738 86.7081L379.746 84.9716C376.321 86.9285 372.526 87.9118 368.338 87.9118V89.9118ZM380.745 86.7043C384.581 84.4739 387.609 81.3068 389.825 77.2293L388.067 76.2743C386.017 80.0474 383.242 82.939 379.739 84.9753L380.745 86.7043ZM389.829 77.2214C392.051 73.044 393.146 68.2272 393.146 62.7998H391.146C391.146 67.9538 390.108 72.4382 388.063 76.2822L389.829 77.2214ZM435.254 3.2798H436.254V2.2798H435.254V3.2798ZM435.254 97.9998V98.9998H436.254V97.9998H435.254ZM423.606 97.9998H422.606V98.9998H423.606V97.9998ZM423.606 3.2798V2.2798H422.606V3.2798H423.606ZM434.254 3.2798V97.9998H436.254V3.2798H434.254ZM435.254 96.9998H423.606V98.9998H435.254V96.9998ZM424.606 97.9998V3.2798H422.606V97.9998H424.606ZM423.606 4.2798H435.254V2.2798H423.606V4.2798ZM456.898 8.7838V7.7838H456.125L455.93 8.53224L456.898 8.7838ZM469.826 8.7838L470.747 9.1733L471.335 7.7838H469.826V8.7838ZM457.538 37.8398V38.8398H458.201L458.459 38.2293L457.538 37.8398ZM449.346 37.8398L448.378 37.5882L448.053 38.8398H449.346V37.8398ZM456.898 9.7838H469.826V7.7838H456.898V9.7838ZM468.905 8.39429L456.617 37.4503L458.459 38.2293L470.747 9.1733L468.905 8.39429ZM457.538 36.8398H449.346V38.8398H457.538V36.8398ZM450.314 38.0914L457.866 9.03535L455.93 8.53224L448.378 37.5882L450.314 38.0914ZM509.218 87.2478L508.28 87.5936L509.221 90.1471L510.157 87.5918L509.218 87.2478ZM530.978 27.8558V26.8558H530.279L530.039 27.5118L530.978 27.8558ZM543.394 27.8558L544.325 28.221L544.861 26.8558H543.394V27.8558ZM515.874 97.9998V98.9998H516.556L516.805 98.365L515.874 97.9998ZM502.306 97.9998L501.375 98.365L501.624 98.9998H502.306V97.9998ZM474.786 27.8558V26.8558H473.319L473.855 28.221L474.786 27.8558ZM487.33 27.8558L488.268 27.51L488.027 26.8558H487.33V27.8558ZM510.157 87.5918L531.917 28.1998L530.039 27.5118L508.279 86.9038L510.157 87.5918ZM530.978 28.8558H543.394V26.8558H530.978V28.8558ZM542.463 27.4906L514.943 97.6346L516.805 98.365L544.325 28.221L542.463 27.4906ZM515.874 96.9998H502.306V98.9998H515.874V96.9998ZM503.237 97.6346L475.717 27.4906L473.855 28.221L501.375 98.365L503.237 97.6346ZM474.786 28.8558H487.33V26.8558H474.786V28.8558ZM486.392 28.2016L508.28 87.5936L510.156 86.902L488.268 27.51L486.392 28.2016ZM566.248 2.8958L565.521 3.58242L565.531 3.5928L565.541 3.6029L566.248 2.8958ZM566.248 14.1598L565.541 13.4527L565.531 13.4628L565.521 13.4732L566.248 14.1598ZM566.504 27.8558H567.504V26.8558H566.504V27.8558ZM566.504 97.9998V98.9998H567.504V97.9998H566.504ZM554.856 97.9998H553.856V98.9998H554.856V97.9998ZM554.856 27.8558V26.8558H553.856V27.8558H554.856ZM560.872 15.4638C558.912 15.4638 557.291 14.7967 555.947 13.4527L554.533 14.8669C556.261 16.5949 558.394 17.4638 560.872 17.4638V15.4638ZM555.947 13.4527C554.603 12.1087 553.936 10.4876 553.936 8.52779H551.936C551.936 11.0053 552.805 13.1389 554.533 14.8669L555.947 13.4527ZM553.936 8.52779C553.936 6.56799 554.603 4.94692 555.947 3.6029L554.533 2.18869C552.805 3.91667 551.936 6.05027 551.936 8.52779H553.936ZM555.947 3.6029C557.291 2.25889 558.912 1.5918 560.872 1.5918V-0.408203C558.394 -0.408203 556.261 0.460708 554.533 2.18869L555.947 3.6029ZM560.872 1.5918C562.733 1.5918 564.261 2.24864 565.521 3.58242L566.975 2.20917C565.333 0.470952 563.277 -0.408203 560.872 -0.408203V1.5918ZM565.541 3.6029C566.885 4.94692 567.552 6.56799 567.552 8.52779H569.552C569.552 6.05027 568.683 3.91667 566.955 2.18869L565.541 3.6029ZM567.552 8.52779C567.552 10.4876 566.885 12.1087 565.541 13.4527L566.955 14.8669C568.683 13.1389 569.552 11.0053 569.552 8.52779H567.552ZM565.521 13.4732C564.261 14.807 562.733 15.4638 560.872 15.4638V17.4638C563.277 17.4638 565.333 16.5846 566.975 14.8464L565.521 13.4732ZM565.504 27.8558V97.9998H567.504V27.8558H565.504ZM566.504 96.9998H554.856V98.9998H566.504V96.9998ZM555.856 97.9998V27.8558H553.856V97.9998H555.856ZM554.856 28.8558H566.504V26.8558H554.856V28.8558ZM595.06 88.3998L594.229 87.8437L593.188 89.3998H595.06V88.3998ZM629.492 88.3998H630.492V87.3998H629.492V88.3998ZM629.492 97.9998V98.9998H630.492V97.9998H629.492ZM581.748 97.9998H580.748V98.9998H581.748V97.9998ZM581.748 88.3998L580.916 87.8451L580.748 88.097V88.3998H581.748ZM615.796 37.3278L616.628 37.8825L617.665 36.3278H615.796V37.3278ZM582.004 37.3278H581.004V38.3278H582.004V37.3278ZM582.004 27.8558V26.8558H581.004V27.8558H582.004ZM629.236 27.8558H630.236V26.8558H629.236V27.8558ZM629.236 37.3278L630.067 37.8839L630.236 37.6315V37.3278H629.236ZM595.06 89.3998H629.492V87.3998H595.06V89.3998ZM628.492 88.3998V97.9998H630.492V88.3998H628.492ZM629.492 96.9998H581.748V98.9998H629.492V96.9998ZM582.748 97.9998V88.3998H580.748V97.9998H582.748ZM582.58 88.9545L616.628 37.8825L614.964 36.7731L580.916 87.8451L582.58 88.9545ZM615.796 36.3278H582.004V38.3278H615.796V36.3278ZM583.004 37.3278V27.8558H581.004V37.3278H583.004ZM582.004 28.8558H629.236V26.8558H582.004V28.8558ZM628.236 27.8558V37.3278H630.236V27.8558H628.236ZM628.405 36.7717L594.229 87.8437L595.891 88.9559L630.067 37.8839L628.405 36.7717Z" fill="black"/>
</g>
<path d="M69.6998 271.449H45.5586L38.5047 253.574L38.3798 253.257H38.0396H1.5V234.201H30.1239H30.8588L30.589 233.517L1.59008 160.036H25.7316L69.6998 271.449Z" fill="black" stroke="black"/>
<path d="M143.795 229.264V160.036L168.011 160.036V271.449H143.554L114.521 230.093V189.148L142.885 229.551L143.795 230.846V229.264Z" fill="black" stroke="black"/>
<path d="M256.389 229.264V160.036L280.607 160.036V271.449H256.149L227.548 230.708V189.764L255.48 229.551L256.389 230.846V229.264Z" fill="black" stroke="black"/>
<path d="M340.729 160.036H391.384V180.189H340.729V160.036Z" fill="black" stroke="black"/>
<path d="M478.293 249.788C487.754 249.788 496.329 246.004 502.591 239.873L518.836 256.098C508.418 266.383 494.099 272.733 478.293 272.733C468.988 272.733 460.202 270.524 452.421 266.615V238.218C458.775 245.316 468.009 249.788 478.293 249.788Z" fill="black" stroke="black"/>
<path d="M639.737 159.57L597.86 219.22L597.77 219.35V219.508V271.449H573.551V219.112V218.954L573.461 218.824L564.068 205.444V164.5L585.39 194.871L585.799 195.454L586.209 194.871L610.992 159.57L639.737 159.57Z" fill="black" stroke="black"/>
<path d="M452.446 192.015V163.618C460.228 159.709 469.014 157.5 478.318 157.5C493.963 157.5 508.15 163.723 518.542 173.823L502.293 190.052C496.061 184.104 487.619 180.447 478.318 180.447C468.035 180.447 458.8 184.919 452.446 192.015Z" fill="black" stroke="black"/>
<path d="M340.729 250.839H391.384V270.992H340.729V250.839Z" fill="black" stroke="black"/>
<path d="M341.412 205.98H381.109V225.037H341.412V205.98Z" fill="black" stroke="black"/>
<path d="M9.81637 322.732H29.7333V328.761H9.81637H9.31637V329.261V350.234H1.5V300.563H32.7298V306.662H9.81637H9.31637V307.162V322.232V322.732H9.81637Z" fill="black" stroke="black"/>
<path d="M101.604 321.652H121.939V327.613H101.604H101.104V328.113V343.703V344.203H101.604H125.457V350.234H93.2886V300.563H125.214V306.662H101.604H101.104V307.162V321.152V321.652H101.604Z" fill="black" stroke="black"/>
<path d="M189.682 332.357C188.83 331.643 187.68 330.976 186.25 330.35C184.821 329.724 182.993 329.075 180.778 328.399H180.775C178.378 327.684 176.17 326.868 174.149 325.951C172.139 325.039 170.42 323.983 168.984 322.786C167.555 321.595 166.443 320.232 165.641 318.692V318.691C164.846 317.171 164.442 315.421 164.442 313.424C164.442 311.457 164.863 309.657 165.695 308.013C166.532 306.364 167.71 304.936 169.236 303.723C170.762 302.514 172.598 301.568 174.754 300.887C176.906 300.207 179.293 299.865 181.922 299.865C184.73 299.865 187.237 300.27 189.451 301.071C191.674 301.876 193.538 302.965 195.052 304.329C196.57 305.702 197.729 307.286 198.537 309.088C199.278 310.742 199.678 312.496 199.738 314.352H191.958C191.912 313.258 191.713 312.235 191.361 311.285C190.953 310.181 190.323 309.225 189.479 308.419V308.418C188.628 307.607 187.564 306.986 186.3 306.551C185.028 306.11 183.54 305.894 181.851 305.894C180.26 305.894 178.859 306.072 177.662 306.439C176.476 306.803 175.467 307.318 174.651 307.995C173.836 308.669 173.228 309.478 172.837 310.412C172.449 311.337 172.258 312.331 172.258 313.391C172.258 315.459 173.249 317.168 175.133 318.498C176.977 319.797 179.751 320.976 183.419 322.048C186.255 322.878 188.7 323.795 190.76 324.801C192.816 325.808 194.508 326.933 195.848 328.18C197.182 329.426 198.165 330.816 198.811 332.36C199.456 333.902 199.782 335.65 199.782 337.612C199.782 339.68 199.373 341.52 198.564 343.149C197.75 344.783 196.594 346.175 195.085 347.323L195.084 347.324C193.574 348.476 191.734 349.366 189.554 349.99C187.375 350.614 184.937 350.929 182.234 350.929C179.841 350.929 177.481 350.605 175.157 349.954C172.84 349.308 170.766 348.335 168.935 347.037C167.114 345.743 165.646 344.133 164.533 342.201C163.505 340.414 162.949 338.327 162.881 335.921H170.701C170.754 337.372 171.046 338.659 171.595 339.766C172.198 340.982 173.026 341.984 174.081 342.764C175.126 343.54 176.356 344.099 177.758 344.45C179.148 344.796 180.641 344.97 182.234 344.97C185.355 344.97 187.792 344.338 189.465 342.997C191.131 341.657 191.969 339.87 191.969 337.681C191.969 336.611 191.81 335.64 191.482 334.773C191.144 333.876 190.536 333.073 189.682 332.357Z" fill="black"/>
<path d="M174.754 300.887C172.598 301.568 170.762 302.514 169.236 303.723C167.71 304.936 166.532 306.364 165.695 308.013C164.863 309.657 164.442 311.457 164.442 313.424C164.442 315.421 164.846 317.171 165.641 318.691V318.692C166.443 320.232 167.555 321.595 168.984 322.786C170.42 323.983 172.139 325.039 174.149 325.951C176.17 326.868 178.378 327.684 180.775 328.399H180.778C182.993 329.075 184.821 329.724 186.25 330.35C187.68 330.976 188.83 331.643 189.682 332.357C190.536 333.073 191.144 333.876 191.482 334.773C191.81 335.64 191.969 336.611 191.969 337.681C191.969 339.87 191.131 341.657 189.465 342.997C187.792 344.338 185.355 344.97 182.234 344.97C180.641 344.97 179.148 344.796 177.758 344.45C176.356 344.099 175.126 343.54 174.081 342.764C173.026 341.984 172.198 340.982 171.595 339.766C171.046 338.659 170.754 337.372 170.701 335.921H162.881C162.949 338.327 163.505 340.414 164.533 342.201C165.646 344.133 167.114 345.743 168.935 347.037C170.766 348.335 172.84 349.308 175.157 349.954C177.481 350.605 179.841 350.929 182.234 350.929C184.937 350.929 187.375 350.614 189.554 349.99C191.734 349.366 193.574 348.476 195.084 347.324L195.085 347.323C196.594 346.175 197.75 344.783 198.564 343.149C199.373 341.52 199.782 339.68 199.782 337.612C199.782 335.65 199.456 333.902 198.811 332.36C198.165 330.816 197.182 329.426 195.848 328.18C194.508 326.933 192.816 325.808 190.76 324.801C188.7 323.795 186.255 322.878 183.419 322.048C179.751 320.976 176.977 319.797 175.133 318.498C173.249 317.168 172.258 315.459 172.258 313.391C172.258 312.331 172.449 311.337 172.837 310.412C173.228 309.478 173.836 308.669 174.651 307.995C175.467 307.318 176.476 306.803 177.662 306.439C178.859 306.072 180.26 305.894 181.851 305.894C183.54 305.894 185.028 306.11 186.3 306.551C187.564 306.986 188.628 307.607 189.479 308.418V308.419C190.323 309.225 190.953 310.181 191.361 311.285C191.713 312.235 191.912 313.258 191.958 314.352H199.738C199.678 312.496 199.278 310.742 198.537 309.088C197.729 307.286 196.57 305.702 195.052 304.329C193.538 302.965 191.674 301.876 189.451 301.071C187.237 300.27 184.73 299.865 181.922 299.865C179.293 299.865 176.906 300.207 174.754 300.887ZM174.754 300.887L174.603 300.41" stroke="black"/>
<path d="M261.782 306.662H246.602V300.563H285.844V306.662H270.526H270.026V307.162V350.234H262.282V307.162V306.662H261.782Z" fill="black" stroke="black"/>
<path d="M344.976 350.234H337.195V300.563H344.976V350.234Z" fill="black" stroke="black"/>
<path d="M416.144 339.856L416.618 341.328L417.096 339.858L429.873 300.563H438.486L420.588 350.234H412.754L394.927 300.563H403.502L416.144 339.856Z" fill="black" stroke="black"/>
<path d="M502.116 338.772L501.999 338.437H501.644H481.995H481.64L481.523 338.773L477.528 350.234H469.443L488.229 300.563H495.446L514.265 350.234H506.145L502.116 338.772ZM483.998 331.671L483.765 332.336H484.47H499.172H499.877L499.644 331.671L492.291 310.652L491.819 309.303L491.347 310.652L483.998 331.671Z" fill="black" stroke="black"/>
<path d="M581.644 343.703V344.203H582.144H604.673V350.234H573.828V300.563H581.644V343.703Z" fill="black" stroke="black"/>
<defs>
<clipPath id="clip0_101_78">
<rect width="630" height="132" fill="white"/>
</clipPath>
</defs>
</svg>
