<svg width="641" height="196" viewBox="0 0 641 196" fill="none" xmlns="http://www.w3.org/2000/svg">
<path d="M25.0718 3.3208H0V3.68765L29.1239 77.4852H0V97.5419H37.0396L44.2183 115.733H69.4347L25.0718 3.3208Z" fill="#263C5F"/>
<path d="M142.295 3.3208V73.0484L113.021 31.3507V74.0356L142.295 115.733H167.512V3.32087L142.295 3.3208Z" fill="#263C5F"/>
<path d="M254.889 3.3208V73.0484L226.048 31.9659V74.6511L254.889 115.733H280.107V3.32087L254.889 3.3208Z" fill="#263C5F"/>
<path d="M390.884 3.3208H339.228V24.4736H390.884V3.3208Z" fill="#263C5F"/>
<path d="M501.592 82.9517C495.391 89.2002 486.796 93.0732 477.293 93.0732C466.676 93.0732 457.195 88.2372 450.921 80.6553V110.707C458.838 114.737 467.798 117.017 477.293 117.017C493.416 117.017 508.007 110.466 518.544 99.8835L501.592 82.9517Z" fill="#263C5F"/>
<path d="M609.732 2.85498L584.799 38.3688L562.568 6.70225V49.3871L572.051 62.8964V115.734H597.269V63.2924L639.698 2.85505L609.732 2.85498Z" fill="#263C5F"/>
<path d="M477.318 0.784668C467.823 0.784668 458.863 3.06519 450.946 7.0951V37.1471C457.22 29.5666 466.702 24.7312 477.318 24.7312C486.66 24.7312 495.123 28.4744 501.299 34.538L518.252 17.6045C507.739 7.20872 493.281 0.784668 477.318 0.784668Z" fill="#263C5F"/>
<path d="M390.884 94.124H339.228V115.277H390.884V94.124Z" fill="#263C5F"/>
<path d="M380.609 49.2646H339.912V69.3216H380.609V49.2646Z" fill="#263C5F"/>
<path d="M29.2333 173.046H8.81637V194.519H0V143.848H32.2298V150.947H8.81637V166.017H29.2333V173.046Z" fill="#263C5F"/>
<path d="M121.439 171.898H100.604V187.488H124.957V194.519H91.7886V143.848H124.714V150.947H100.604V164.936H121.439V171.898Z" fill="#263C5F"/>
<path d="M190.469 181.466C190.469 180.445 190.317 179.536 190.014 178.734C189.712 177.934 189.162 177.198 188.36 176.525C187.557 175.852 186.454 175.207 185.05 174.592C183.645 173.978 181.837 173.335 179.632 172.662C177.216 171.942 174.986 171.118 172.942 170.191C170.898 169.263 169.139 168.184 167.664 166.955C166.188 165.725 165.032 164.31 164.197 162.708C163.361 161.106 162.942 159.275 162.942 157.209C162.942 155.167 163.379 153.289 164.249 151.572C165.12 149.855 166.345 148.372 167.925 147.116C169.505 145.864 171.398 144.891 173.603 144.195C175.811 143.498 178.249 143.149 180.922 143.149C183.778 143.149 186.344 143.562 188.621 144.386C190.896 145.209 192.819 146.33 194.387 147.742C195.955 149.16 197.156 150.801 197.993 152.668C198.83 154.537 199.246 156.527 199.246 158.637H190.469C190.469 157.406 190.275 156.276 189.892 155.243C189.51 154.21 188.922 153.319 188.134 152.565C187.343 151.811 186.344 151.223 185.137 150.808C183.929 150.39 182.499 150.179 180.851 150.179C179.295 150.179 177.946 150.353 176.809 150.702C175.672 151.05 174.725 151.538 173.969 152.165C173.214 152.789 172.657 153.534 172.298 154.39C171.937 155.249 171.758 156.177 171.758 157.176C171.758 159.054 172.646 160.621 174.421 161.874C176.198 163.126 178.91 164.286 182.559 165.353C185.416 166.189 187.888 167.116 189.98 168.137C192.07 169.16 193.806 170.312 195.189 171.599C196.571 172.889 197.597 174.338 198.272 175.952C198.946 177.564 199.282 179.379 199.282 181.396C199.282 183.532 198.858 185.45 198.011 187.156C197.162 188.861 195.956 190.312 194.387 191.506C192.819 192.702 190.921 193.617 188.691 194.256C186.46 194.895 183.976 195.214 181.234 195.214C178.795 195.214 176.39 194.884 174.022 194.22C171.653 193.56 169.527 192.563 167.646 191.23C165.766 189.894 164.249 188.23 163.1 186.235C161.95 184.238 161.374 181.896 161.374 179.206H170.191C170.191 180.806 170.473 182.181 171.043 183.329C171.613 184.477 172.39 185.416 173.379 186.147C174.364 186.879 175.532 187.413 176.879 187.749C178.225 188.085 179.678 188.254 181.234 188.254C184.3 188.254 186.605 187.632 188.152 186.392C189.695 185.15 190.469 183.508 190.469 181.466Z" fill="#263C5F"/>
<path d="M285.344 150.947H269.526V194.519H260.782V150.947H245.102V143.848H285.344V150.947Z" fill="#263C5F"/>
<path d="M344.477 194.519H335.696V143.848H344.477V194.519Z" fill="#263C5F"/>
<path d="M415.62 183.488L428.51 143.848H438.197L419.939 194.519H411.402L393.216 143.848H402.866L415.62 183.488Z" fill="#263C5F"/>
<path fill-rule="evenodd" clip-rule="evenodd" d="M500.645 182.722H480.995L476.884 194.519H467.719L486.883 143.848H494.791L513.989 194.519H504.791L500.645 182.722ZM483.47 175.621H498.172L490.82 154.602L483.47 175.621Z" fill="#263C5F"/>
<path d="M581.144 187.488H604.173V194.519H572.328V143.848H581.144V187.488Z" fill="#263C5F"/>
</svg>
