<?xml version="1.0" standalone="no"?>
<!DOCTYPE svg PUBLIC "-//W3C//DTD SVG 20010904//EN"
 "http://www.w3.org/TR/2001/REC-SVG-20010904/DTD/svg10.dtd">
<svg version="1.0" xmlns="http://www.w3.org/2000/svg"
 width="676.000000pt" height="676.000000pt" viewBox="0 0 676.000000 676.000000"
 preserveAspectRatio="xMidYMid meet">
<metadata>
Created by potrace 1.14, written by Peter Selinger 2001-2017
</metadata>
<g transform="translate(0.000000,676.000000) scale(0.100000,-0.100000)"
fill="#000000" stroke="none">
<path d="M3845 6748 c-5 -4 -46 -31 -90 -59 -44 -29 -82 -55 -85 -58 -3 -4
-23 -20 -46 -36 -121 -88 -321 -277 -465 -439 -24 -27 -51 -57 -59 -66 -30
-31 -199 -247 -258 -330 -34 -47 -65 -89 -69 -95 -25 -31 -180 -278 -243 -385
-77 -132 -235 -437 -287 -555 -18 -38 -43 -95 -57 -125 -107 -239 -318 -824
-340 -946 -3 -13 -7 -27 -10 -32 -3 -5 -7 -19 -10 -33 -3 -13 -13 -49 -21 -79
-24 -84 -74 -282 -79 -310 -2 -14 -11 -52 -19 -85 -9 -33 -18 -73 -21 -90 -3
-16 -7 -41 -10 -55 -7 -30 -24 -115 -31 -150 -15 -74 -47 -260 -51 -295 -2
-22 -9 -62 -14 -90 -5 -27 -12 -75 -15 -105 -3 -30 -10 -82 -15 -115 -5 -33
-12 -85 -15 -115 -3 -30 -8 -77 -11 -105 -6 -54 -9 -85 -20 -212 l-7 -83 1162
0 1161 0 0 -149 0 -149 -35 -4 c-19 -2 -35 0 -35 5 0 4 -4 6 -10 2 -5 -3 -321
-8 -702 -10 -381 -3 -1039 -7 -1462 -10 -423 -3 -771 -7 -773 -9 -6 -6 33 -81
75 -146 156 -240 414 -465 693 -605 39 -20 69 -38 68 -40 -2 -2 -40 -17 -84
-35 -83 -32 -290 -133 -312 -151 -10 -9 -9 -16 2 -35 8 -13 22 -36 31 -50 l15
-25 62 34 c60 33 261 123 322 145 17 5 39 14 50 18 11 4 22 8 25 9 3 0 32 9
65 19 33 10 67 20 75 21 203 46 194 45 345 49 144 4 193 -7 415 -89 350 -130
681 -213 881 -221 99 -4 135 6 269 76 263 138 374 167 485 129 28 -9 136 -60
240 -113 147 -74 202 -97 245 -102 30 -3 57 -7 60 -7 11 -3 108 27 155 48 28
12 84 37 125 55 41 18 93 40 115 50 60 27 170 61 207 64 42 4 75 -13 168 -84
127 -96 187 -124 285 -132 45 -3 46 -1 32 78 -7 40 -8 41 -53 48 -53 7 -85 24
-207 115 l-89 66 27 21 c15 12 94 68 175 125 95 67 150 111 152 124 2 11 1 62
-2 113 l-5 94 -169 169 c-130 129 -176 169 -195 169 -14 1 -206 3 -426 6 -220
2 -548 6 -730 9 -181 2 -367 4 -412 4 l-83 1 0 150 0 150 736 0 736 0 -5 22
c-2 13 -37 115 -76 228 -135 382 -142 405 -146 420 -2 8 -29 87 -60 175 -54
153 -125 358 -165 475 -10 30 -51 147 -90 260 -39 113 -80 230 -90 260 -22 66
-165 478 -210 605 -17 50 -42 122 -55 160 -30 89 -181 525 -280 810 -42 121
-85 245 -95 275 -31 92 -177 513 -189 543 -7 19 -11 155 -11 402 l0 374 -22
24 c-14 15 -27 21 -33 15z m-25 -2543 l0 -2425 -1119 0 -1120 0 4 22 c4 29 14
117 20 188 3 30 7 71 9 90 3 19 8 60 11 90 4 30 8 66 10 80 2 14 7 45 10 70 3
25 11 74 17 110 5 36 12 76 14 90 1 14 6 41 9 60 4 19 8 46 10 60 10 66 16 97
50 265 20 99 41 198 47 220 5 22 12 47 13 55 2 8 9 38 15 65 6 28 13 58 15 67
2 9 13 52 26 95 12 43 22 83 24 88 1 6 7 30 14 55 8 25 14 50 15 55 21 105
250 757 278 793 6 6 8 12 5 12 -5 0 10 37 67 165 13 28 31 70 42 95 25 59 234
474 243 480 3 3 19 30 35 60 16 30 35 62 42 71 8 8 14 18 14 22 0 16 208 332
299 452 52 70 181 235 196 251 5 6 44 49 85 95 87 99 231 243 315 316 94 81
102 88 127 106 13 10 50 37 83 62 33 25 63 45 67 45 5 0 8 -1091 8 -2425z
m243 1045 c91 -262 81 -232 107 -310 12 -36 26 -74 30 -85 5 -11 24 -67 44
-125 31 -95 166 -484 179 -520 3 -8 13 -35 21 -60 8 -25 47 -137 86 -250 81
-232 163 -470 210 -610 17 -52 36 -104 40 -115 10 -23 80 -224 115 -330 13
-38 56 -162 95 -275 40 -113 74 -214 77 -225 3 -11 9 -29 14 -40 16 -35 179
-511 179 -522 0 -2 -306 -3 -680 -3 l-680 0 0 1968 1 1967 44 -125 c24 -69 77
-222 118 -340z m1081 -3944 l400 -7 147 -146 148 -147 0 -73 c0 -70 -1 -73
-32 -95 -18 -12 -33 -26 -35 -30 -2 -4 -8 -8 -13 -8 -6 0 -15 -5 -22 -10 -7
-6 -37 -28 -67 -50 -30 -22 -59 -43 -65 -48 -59 -48 -142 -96 -168 -98 -65 -5
-179 -35 -242 -64 -11 -5 -42 -19 -70 -31 -27 -12 -74 -33 -104 -47 -110 -49
-183 -73 -225 -70 -29 1 -98 31 -241 103 -240 121 -274 133 -374 129 -104 -4
-201 -38 -407 -141 l-172 -85 -83 7 c-128 12 -205 25 -339 60 -36 9 -72 18
-80 20 -74 17 -379 118 -483 161 -34 14 -69 27 -77 30 -8 2 -40 11 -70 20 -64
19 -309 27 -386 13 -27 -5 -65 -12 -84 -14 -19 -3 -77 -16 -128 -29 l-94 -24
-69 23 c-215 73 -494 278 -667 490 -18 22 -38 47 -45 55 -22 27 -66 95 -63 97
2 2 392 6 867 9 475 3 865 6 866 7 5 5 2113 -1 2477 -7z"/>
<path d="M3110 5103 c-19 -13 -44 -29 -55 -34 -11 -5 -51 -29 -90 -53 -86 -55
-248 -155 -289 -178 -16 -10 -37 -24 -45 -33 -12 -11 -94 -294 -117 -400 -2
-11 -51 -195 -109 -410 -58 -214 -108 -401 -111 -415 -3 -14 -12 -48 -20 -77
-15 -52 -15 -52 36 -235 28 -101 59 -212 70 -248 10 -36 42 -146 71 -244 62
-214 73 -243 108 -274 31 -28 130 -74 186 -87 11 -3 55 -13 97 -23 42 -11 80
-16 85 -13 4 3 26 29 48 56 21 28 47 59 57 70 24 27 47 55 83 101 17 21 56 70
88 109 186 224 169 192 182 340 3 27 7 65 10 85 2 19 7 64 10 100 3 36 8 81
10 100 3 19 7 62 10 95 3 33 7 80 10 105 3 25 7 68 10 95 11 111 26 252 30
285 2 19 7 64 10 100 4 36 8 81 11 100 2 19 6 62 9 95 3 33 8 72 11 87 5 31
-16 84 -106 275 -33 69 -60 126 -60 128 0 2 -22 51 -49 109 -27 57 -69 147
-92 198 -56 122 -56 122 -99 91z m-20 -116 c0 -2 -13 -30 -29 -63 -15 -32 -70
-151 -121 -264 -50 -113 -95 -208 -99 -212 -4 -4 -31 66 -61 157 -30 90 -52
166 -50 169 9 8 201 126 206 126 3 0 10 5 17 10 36 32 137 88 137 77z m169
-278 c19 -41 51 -110 71 -154 65 -140 83 -180 82 -185 -2 -6 -7 -6 -107 -14
-38 -3 -97 -8 -130 -12 -33 -3 -85 -7 -115 -9 -30 -1 -83 -6 -117 -10 -35 -3
-63 -3 -63 0 0 8 51 123 110 250 47 100 138 302 152 335 11 27 16 18 117 -201z
m-544 -169 c2 -8 13 -39 24 -67 12 -29 18 -53 15 -53 -4 0 -1 -7 6 -15 7 -8
10 -15 7 -15 -3 0 1 -17 9 -37 9 -20 17 -44 19 -52 2 -9 4 -20 6 -26 3 -9 -9
-126 -17 -170 -1 -11 -6 -40 -9 -65 -3 -25 -8 -61 -10 -80 -3 -19 -7 -57 -11
-85 -3 -27 -7 -59 -9 -70 -1 -11 -5 -45 -9 -75 -10 -82 -16 -124 -20 -145 -2
-11 -7 -47 -10 -80 -4 -33 -9 -69 -11 -80 -2 -11 -4 -27 -4 -37 -1 -15 -5 -15
-48 -1 -27 8 -55 16 -63 18 -8 2 -62 18 -120 34 -58 17 -106 31 -108 31 -3 0
4 34 24 105 9 33 18 67 19 75 2 8 13 47 25 85 11 39 22 79 24 90 2 11 38 148
80 305 42 157 85 321 97 365 12 44 28 103 37 130 l16 50 18 -60 c10 -33 21
-67 23 -75z m711 -304 c-2 -22 -8 -70 -11 -106 -4 -36 -8 -76 -10 -90 -2 -14
-7 -61 -11 -105 -3 -44 -8 -88 -10 -98 -3 -20 -17 -173 -18 -199 0 -10 -3 -18
-6 -18 -3 0 -5 -21 -6 -48 -1 -43 -7 -121 -18 -212 -6 -48 -15 -133 -21 -205
-7 -68 -16 -139 -19 -142 -1 -1 -120 71 -264 160 l-262 162 4 60 c3 33 7 71
10 84 3 13 8 47 11 75 3 28 7 67 10 86 3 19 7 59 10 89 3 30 7 57 9 60 2 3 7
37 11 76 4 38 8 72 10 75 1 3 6 35 9 72 4 37 9 77 11 90 2 13 6 45 10 73 3 27
9 53 14 58 4 4 32 10 62 12 30 2 83 7 119 10 104 9 170 14 255 21 44 3 82 8
84 10 13 12 22 -14 17 -50z m-948 -886 c57 -16 107 -32 111 -34 4 -3 23 -8 42
-11 19 -3 37 -9 40 -13 4 -4 1 -34 -6 -67 -7 -33 -16 -80 -20 -105 -10 -64
-12 -76 -29 -165 -9 -44 -18 -98 -22 -120 -3 -22 -7 -44 -8 -50 -2 -5 -6 -32
-11 -60 -7 -45 -9 -47 -17 -25 -5 14 -11 32 -13 40 -2 8 -40 141 -85 295 -44
154 -82 290 -84 302 -3 13 -7 27 -11 33 -9 14 -1 13 113 -20z m335 -134 c67
-43 327 -205 372 -231 19 -11 46 -29 60 -40 26 -20 26 -20 8 -41 -10 -12 -52
-64 -93 -114 -41 -51 -119 -146 -172 -211 l-97 -117 -43 10 c-24 5 -50 11 -58
13 -8 2 -48 15 -87 30 -51 19 -73 32 -73 44 0 10 9 64 19 122 11 57 22 120 25
139 3 19 8 49 11 65 3 17 17 93 32 170 14 77 27 147 28 155 2 8 4 21 4 28 1
18 7 16 64 -22z"/>
<path d="M2610 1211 c0 -5 10 -31 22 -58 12 -26 22 -50 22 -53 1 -3 13 -30 27
-60 14 -30 47 -105 74 -167 l49 -111 38 -4 c40 -4 68 6 68 23 0 10 71 176 136
317 19 41 34 79 34 86 0 7 5 17 12 24 9 9 1 12 -39 12 -58 0 -61 -3 -93 -85
-13 -33 -26 -64 -30 -70 -4 -5 -17 -39 -30 -75 -13 -36 -30 -76 -36 -89 -12
-23 -14 -22 -42 40 -16 35 -48 112 -71 172 l-43 107 -49 0 c-27 0 -49 -4 -49
-9z"/>
<path d="M3537 1213 c-2 -4 -4 -109 -4 -233 l0 -225 47 3 47 4 -1 226 -1 227
-42 3 c-22 2 -43 -1 -46 -5z"/>
<path d="M4049 1218 c-7 -16 -4 -70 4 -75 5 -3 65 -6 133 -5 68 0 124 -2 124
-4 0 -2 -63 -85 -141 -185 -77 -99 -138 -183 -135 -186 6 -7 395 -5 406 2 5 3
11 1 15 -5 12 -20 25 2 23 41 -1 36 -8 45 -33 39 -5 -1 -53 -1 -105 0 -52 1
-105 1 -117 1 -13 0 -23 2 -23 5 0 5 207 268 259 329 9 12 20 26 24 32 6 9
-50 12 -213 13 -121 0 -221 -1 -221 -2z"/>
<path d="M2149 455 c-2 -2 -30 -6 -62 -9 -114 -12 -312 -66 -477 -131 -146
-57 -362 -166 -356 -181 3 -7 16 -31 31 -54 l26 -41 73 40 c192 103 493 212
651 236 17 3 57 9 90 14 83 13 280 6 340 -12 28 -8 104 -35 170 -60 161 -60
348 -120 475 -153 66 -17 231 -55 255 -59 17 -2 41 -7 55 -10 14 -3 74 -7 133
-9 l108 -4 177 88 c235 117 287 134 396 133 54 0 75 -9 270 -106 116 -59 233
-112 259 -118 81 -20 139 -7 317 71 207 90 312 127 373 133 44 3 53 0 115 -45
190 -139 267 -176 347 -166 28 3 30 6 27 38 -6 71 -8 75 -38 78 -54 5 -115 38
-215 113 -111 84 -153 104 -219 102 -30 -1 -66 -3 -80 -6 -44 -8 -183 -57
-258 -93 -41 -19 -76 -34 -78 -34 -3 0 -33 -13 -67 -29 -92 -42 -135 -54 -178
-48 -38 5 -191 74 -239 107 -14 10 -28 19 -32 19 -4 1 -49 22 -100 46 -103 49
-137 58 -218 59 -119 1 -217 -32 -448 -151 l-142 -73 -73 4 c-95 5 -225 29
-372 67 -66 17 -124 32 -130 33 -44 10 -219 69 -362 122 -94 34 -202 69 -240
77 -59 12 -295 22 -304 12z"/>
</g>
</svg>
